%TF.GenerationSoftware,KiCad,Pcbnew,6.0.0+dfsg1-2*%
%TF.CreationDate,2022-01-11T21:28:19+02:00*%
%TF.ProjectId,borraja,626f7272-616a-4612-9e6b-696361645f70,rev?*%
%TF.SameCoordinates,Original*%
%TF.FileFunction,Copper,L2,Bot*%
%TF.FilePolarity,Positive*%
%FSLAX46Y46*%
G04 Gerber Fmt 4.6, Leading zero omitted, Abs format (unit mm)*
G04 Created by KiCad (PCBNEW 6.0.0+dfsg1-2) date 2022-01-11 21:28:19*
%MOMM*%
%LPD*%
G01*
G04 APERTURE LIST*
%TA.AperFunction,ComponentPad*%
%ADD10R,2.540000X2.540000*%
%TD*%
%TA.AperFunction,ComponentPad*%
%ADD11O,2.540000X2.540000*%
%TD*%
%TA.AperFunction,ComponentPad*%
%ADD12R,2.200000X2.200000*%
%TD*%
%TA.AperFunction,ComponentPad*%
%ADD13O,2.200000X2.200000*%
%TD*%
%TA.AperFunction,ComponentPad*%
%ADD14R,1.930400X1.930400*%
%TD*%
%TA.AperFunction,ComponentPad*%
%ADD15O,1.930400X1.930400*%
%TD*%
%TA.AperFunction,ComponentPad*%
%ADD16R,1.600000X1.600000*%
%TD*%
%TA.AperFunction,ComponentPad*%
%ADD17C,1.600000*%
%TD*%
%TA.AperFunction,ViaPad*%
%ADD18C,0.800000*%
%TD*%
%TA.AperFunction,Conductor*%
%ADD19C,0.350000*%
%TD*%
G04 APERTURE END LIST*
D10*
%TO.P,RV1,1,1*%
%TO.N,Net-(C1-Pad1)*%
X151108500Y-97183500D03*
D11*
%TO.P,RV1,2,2*%
X146028500Y-97183500D03*
%TO.P,RV1,3,3*%
%TO.N,Net-(R3-Pad1)*%
X140948500Y-97183500D03*
%TD*%
D12*
%TO.P,D1,1,K*%
%TO.N,VCC*%
X154500000Y-91250000D03*
D13*
%TO.P,D1,2,A*%
%TO.N,+9V*%
X154500000Y-101410000D03*
%TD*%
D14*
%TO.P,J1,1,Pin_1*%
%TO.N,IN*%
X142190000Y-101500000D03*
D15*
%TO.P,J1,2,Pin_2*%
%TO.N,GND*%
X144730000Y-101500000D03*
%TO.P,J1,3,Pin_3*%
%TO.N,+9V*%
X147270000Y-101500000D03*
%TO.P,J1,4,Pin_4*%
%TO.N,OUT*%
X149810000Y-101500000D03*
%TD*%
D16*
%TO.P,C3,1*%
%TO.N,VCC*%
X145000000Y-87500000D03*
D17*
%TO.P,C3,2*%
%TO.N,GND*%
X142500000Y-87500000D03*
%TD*%
D16*
%TO.P,C2,1*%
%TO.N,Net-(R2-Pad2)*%
X149000000Y-86750000D03*
D17*
%TO.P,C2,2*%
%TO.N,OUT*%
X151500000Y-86750000D03*
%TD*%
D16*
%TO.P,C1,1*%
%TO.N,Net-(C1-Pad1)*%
X148750000Y-92500000D03*
D17*
%TO.P,C1,2*%
%TO.N,GND*%
X151250000Y-92500000D03*
%TD*%
D18*
%TO.N,GND*%
X154500000Y-98500000D03*
%TD*%
D19*
%TO.N,VCC*%
X152064001Y-85574999D02*
X146925001Y-85574999D01*
X154500000Y-88010998D02*
X152064001Y-85574999D01*
X146925001Y-85574999D02*
X145000000Y-87500000D01*
X154500000Y-91250000D02*
X154500000Y-88010998D01*
%TO.N,+9V*%
X148610201Y-100159799D02*
X153249799Y-100159799D01*
X147270000Y-101500000D02*
X148610201Y-100159799D01*
X153249799Y-100159799D02*
X154500000Y-101410000D01*
%TD*%
%TA.AperFunction,Conductor*%
%TO.N,GND*%
G36*
X155684121Y-84528002D02*
G01*
X155730614Y-84581658D01*
X155742000Y-84634000D01*
X155742000Y-89515500D01*
X155721998Y-89583621D01*
X155668342Y-89630114D01*
X155616000Y-89641500D01*
X155309500Y-89641500D01*
X155241379Y-89621498D01*
X155194886Y-89567842D01*
X155183500Y-89515500D01*
X155183500Y-88039054D01*
X155183792Y-88030484D01*
X155186195Y-87995229D01*
X155187577Y-87974964D01*
X155182132Y-87943761D01*
X155176997Y-87914340D01*
X155176034Y-87907817D01*
X155169558Y-87854306D01*
X155169558Y-87854305D01*
X155168645Y-87846763D01*
X155165959Y-87839653D01*
X155164754Y-87834750D01*
X155161886Y-87824264D01*
X155160439Y-87819472D01*
X155159134Y-87811994D01*
X155148732Y-87788297D01*
X155134405Y-87755657D01*
X155131914Y-87749552D01*
X155112855Y-87699116D01*
X155112853Y-87699113D01*
X155110169Y-87692009D01*
X155105869Y-87685752D01*
X155103533Y-87681284D01*
X155098275Y-87671838D01*
X155095693Y-87667472D01*
X155092638Y-87660513D01*
X155055177Y-87611694D01*
X155051314Y-87606375D01*
X155020769Y-87561933D01*
X155016466Y-87555672D01*
X154971676Y-87515765D01*
X154966402Y-87510785D01*
X152567157Y-85111540D01*
X152561303Y-85105275D01*
X152529705Y-85069054D01*
X152524711Y-85063329D01*
X152474346Y-85027933D01*
X152469078Y-85024019D01*
X152426650Y-84990751D01*
X152420673Y-84986064D01*
X152413749Y-84982938D01*
X152409440Y-84980328D01*
X152400025Y-84974957D01*
X152395577Y-84972572D01*
X152389362Y-84968204D01*
X152332040Y-84945855D01*
X152325972Y-84943305D01*
X152269896Y-84917985D01*
X152262419Y-84916599D01*
X152257599Y-84915089D01*
X152247166Y-84912117D01*
X152242305Y-84910869D01*
X152235229Y-84908110D01*
X152174239Y-84900081D01*
X152167723Y-84899049D01*
X152114701Y-84889222D01*
X152107234Y-84887838D01*
X152099654Y-84888275D01*
X152099653Y-84888275D01*
X152047359Y-84891290D01*
X152040107Y-84891499D01*
X146953057Y-84891499D01*
X146944487Y-84891207D01*
X146943444Y-84891136D01*
X146888967Y-84887422D01*
X146881490Y-84888727D01*
X146881487Y-84888727D01*
X146828343Y-84898002D01*
X146821820Y-84898965D01*
X146768309Y-84905441D01*
X146768308Y-84905441D01*
X146760766Y-84906354D01*
X146753656Y-84909040D01*
X146748753Y-84910245D01*
X146738301Y-84913104D01*
X146733485Y-84914558D01*
X146725997Y-84915865D01*
X146669628Y-84940609D01*
X146663589Y-84943074D01*
X146606012Y-84964830D01*
X146599749Y-84969135D01*
X146595259Y-84971482D01*
X146585808Y-84976742D01*
X146581467Y-84979309D01*
X146574516Y-84982360D01*
X146568496Y-84986979D01*
X146568488Y-84986984D01*
X146525699Y-85019818D01*
X146520385Y-85023680D01*
X146469675Y-85058533D01*
X146464625Y-85064201D01*
X146429769Y-85103322D01*
X146424788Y-85108597D01*
X145378790Y-86154595D01*
X145316478Y-86188621D01*
X145289695Y-86191500D01*
X144151866Y-86191500D01*
X144089684Y-86198255D01*
X143953295Y-86249385D01*
X143836739Y-86336739D01*
X143749385Y-86453295D01*
X143698255Y-86589684D01*
X143691500Y-86651866D01*
X143691500Y-86655185D01*
X143667847Y-86722110D01*
X143621844Y-86757804D01*
X143622859Y-86759734D01*
X143612000Y-86765442D01*
X143611755Y-86765632D01*
X143611597Y-86765653D01*
X143573566Y-86785644D01*
X142872022Y-87487188D01*
X142864408Y-87501132D01*
X142864539Y-87502965D01*
X142868790Y-87509580D01*
X143574287Y-88215077D01*
X143616029Y-88237871D01*
X143626029Y-88240047D01*
X143676227Y-88290253D01*
X143691451Y-88343814D01*
X143691500Y-88344717D01*
X143691500Y-88348134D01*
X143698255Y-88410316D01*
X143749385Y-88546705D01*
X143836739Y-88663261D01*
X143953295Y-88750615D01*
X144089684Y-88801745D01*
X144151866Y-88808500D01*
X145848134Y-88808500D01*
X145910316Y-88801745D01*
X146046705Y-88750615D01*
X146163261Y-88663261D01*
X146250615Y-88546705D01*
X146301745Y-88410316D01*
X146308500Y-88348134D01*
X146308500Y-87210305D01*
X146328502Y-87142184D01*
X146345405Y-87121210D01*
X147171211Y-86295404D01*
X147233523Y-86261378D01*
X147260306Y-86258499D01*
X147565500Y-86258499D01*
X147633621Y-86278501D01*
X147680114Y-86332157D01*
X147691500Y-86384499D01*
X147691500Y-87598134D01*
X147698255Y-87660316D01*
X147749385Y-87796705D01*
X147836739Y-87913261D01*
X147953295Y-88000615D01*
X148089684Y-88051745D01*
X148151866Y-88058500D01*
X149848134Y-88058500D01*
X149910316Y-88051745D01*
X150046705Y-88000615D01*
X150163261Y-87913261D01*
X150250615Y-87796705D01*
X150301745Y-87660316D01*
X150303691Y-87661046D01*
X150333545Y-87608795D01*
X150396503Y-87575979D01*
X150467207Y-87582409D01*
X150510000Y-87610498D01*
X150655700Y-87756198D01*
X150660208Y-87759355D01*
X150660211Y-87759357D01*
X150701542Y-87788297D01*
X150843251Y-87887523D01*
X150848233Y-87889846D01*
X150848238Y-87889849D01*
X151014729Y-87967484D01*
X151050757Y-87984284D01*
X151056065Y-87985706D01*
X151056067Y-87985707D01*
X151266598Y-88042119D01*
X151266600Y-88042119D01*
X151271913Y-88043543D01*
X151500000Y-88063498D01*
X151728087Y-88043543D01*
X151733400Y-88042119D01*
X151733402Y-88042119D01*
X151943933Y-87985707D01*
X151943935Y-87985706D01*
X151949243Y-87984284D01*
X151985271Y-87967484D01*
X152151762Y-87889849D01*
X152151767Y-87889846D01*
X152156749Y-87887523D01*
X152298458Y-87788297D01*
X152339789Y-87759357D01*
X152339792Y-87759355D01*
X152344300Y-87756198D01*
X152506198Y-87594300D01*
X152514525Y-87582409D01*
X152634366Y-87411257D01*
X152637523Y-87406749D01*
X152639846Y-87401768D01*
X152639852Y-87401757D01*
X152654213Y-87370959D01*
X152701130Y-87317674D01*
X152769407Y-87298214D01*
X152837367Y-87318756D01*
X152857502Y-87335115D01*
X153779595Y-88257208D01*
X153813621Y-88319520D01*
X153816500Y-88346303D01*
X153816500Y-89515500D01*
X153796498Y-89583621D01*
X153742842Y-89630114D01*
X153690500Y-89641500D01*
X153351866Y-89641500D01*
X153289684Y-89648255D01*
X153153295Y-89699385D01*
X153036739Y-89786739D01*
X152949385Y-89903295D01*
X152898255Y-90039684D01*
X152891500Y-90101866D01*
X152891500Y-92398134D01*
X152898255Y-92460316D01*
X152949385Y-92596705D01*
X153036739Y-92713261D01*
X153153295Y-92800615D01*
X153289684Y-92851745D01*
X153351866Y-92858500D01*
X155616000Y-92858500D01*
X155684121Y-92878502D01*
X155730614Y-92932158D01*
X155742000Y-92984500D01*
X155742000Y-100082135D01*
X155721998Y-100150256D01*
X155668342Y-100196749D01*
X155598068Y-100206853D01*
X155534170Y-100177946D01*
X155452142Y-100107888D01*
X155452138Y-100107885D01*
X155448376Y-100104672D01*
X155232502Y-99972384D01*
X155227932Y-99970491D01*
X155227928Y-99970489D01*
X155003164Y-99877389D01*
X155003162Y-99877388D01*
X154998591Y-99875495D01*
X154846640Y-99839015D01*
X154757216Y-99817546D01*
X154757210Y-99817545D01*
X154752403Y-99816391D01*
X154500000Y-99796526D01*
X154247597Y-99816391D01*
X154242790Y-99817545D01*
X154242784Y-99817546D01*
X154074708Y-99857898D01*
X154014138Y-99872439D01*
X153943231Y-99868892D01*
X153895630Y-99839015D01*
X153752955Y-99696340D01*
X153747101Y-99690075D01*
X153715503Y-99653854D01*
X153710509Y-99648129D01*
X153660144Y-99612733D01*
X153654876Y-99608819D01*
X153654468Y-99608499D01*
X153606471Y-99570864D01*
X153599547Y-99567738D01*
X153595238Y-99565128D01*
X153585823Y-99559757D01*
X153581375Y-99557372D01*
X153575160Y-99553004D01*
X153517838Y-99530655D01*
X153511770Y-99528105D01*
X153455694Y-99502785D01*
X153448217Y-99501399D01*
X153443397Y-99499889D01*
X153432964Y-99496917D01*
X153428103Y-99495669D01*
X153421027Y-99492910D01*
X153360037Y-99484881D01*
X153353521Y-99483849D01*
X153300499Y-99474022D01*
X153293032Y-99472638D01*
X153285452Y-99473075D01*
X153285451Y-99473075D01*
X153233157Y-99476090D01*
X153225905Y-99476299D01*
X148638246Y-99476299D01*
X148629677Y-99476007D01*
X148581743Y-99472739D01*
X148581739Y-99472739D01*
X148574167Y-99472223D01*
X148566690Y-99473528D01*
X148566687Y-99473528D01*
X148513554Y-99482801D01*
X148507030Y-99483764D01*
X148453510Y-99490241D01*
X148445966Y-99491154D01*
X148438856Y-99493841D01*
X148433953Y-99495045D01*
X148423467Y-99497913D01*
X148418675Y-99499360D01*
X148411197Y-99500665D01*
X148404245Y-99503717D01*
X148404244Y-99503717D01*
X148354857Y-99525395D01*
X148348752Y-99527886D01*
X148298326Y-99546941D01*
X148298320Y-99546944D01*
X148291212Y-99549630D01*
X148284948Y-99553936D01*
X148280452Y-99556286D01*
X148271020Y-99561536D01*
X148266674Y-99564106D01*
X148259715Y-99567161D01*
X148253685Y-99571788D01*
X148210892Y-99604623D01*
X148205567Y-99608492D01*
X148154875Y-99643333D01*
X148149824Y-99649002D01*
X148149823Y-99649003D01*
X148114969Y-99688122D01*
X148109988Y-99693397D01*
X147766127Y-100037258D01*
X147703815Y-100071284D01*
X147647788Y-100070048D01*
X147647741Y-100070309D01*
X147409163Y-100027812D01*
X147315625Y-100026669D01*
X147172018Y-100024914D01*
X147172016Y-100024914D01*
X147166848Y-100024851D01*
X146927303Y-100061507D01*
X146696961Y-100136794D01*
X146482009Y-100248691D01*
X146477876Y-100251794D01*
X146477873Y-100251796D01*
X146292353Y-100391088D01*
X146288218Y-100394193D01*
X146120795Y-100569392D01*
X146117883Y-100573661D01*
X146117878Y-100573667D01*
X146104935Y-100592640D01*
X146050023Y-100637642D01*
X145979498Y-100645812D01*
X145915751Y-100614556D01*
X145901021Y-100598515D01*
X145897718Y-100594227D01*
X145741641Y-100422700D01*
X145734108Y-100415674D01*
X145552104Y-100271936D01*
X145543532Y-100266240D01*
X145340492Y-100154156D01*
X145331095Y-100149933D01*
X145112480Y-100072518D01*
X145102530Y-100069889D01*
X145001836Y-100051953D01*
X144988540Y-100053412D01*
X144984000Y-100067968D01*
X144984000Y-101628000D01*
X144963998Y-101696121D01*
X144910342Y-101742614D01*
X144858000Y-101754000D01*
X144602000Y-101754000D01*
X144533879Y-101733998D01*
X144487386Y-101680342D01*
X144476000Y-101628000D01*
X144476000Y-100066555D01*
X144472082Y-100053211D01*
X144457806Y-100051224D01*
X144392532Y-100061213D01*
X144382504Y-100063602D01*
X144162073Y-100135650D01*
X144152564Y-100139647D01*
X143946865Y-100246727D01*
X143938140Y-100252221D01*
X143802881Y-100353777D01*
X143736396Y-100378683D01*
X143667001Y-100363691D01*
X143616727Y-100313560D01*
X143609246Y-100297247D01*
X143608967Y-100296503D01*
X143605815Y-100288095D01*
X143518461Y-100171539D01*
X143401905Y-100084185D01*
X143265516Y-100033055D01*
X143203334Y-100026300D01*
X141176666Y-100026300D01*
X141114484Y-100033055D01*
X140978095Y-100084185D01*
X140861539Y-100171539D01*
X140774185Y-100288095D01*
X140723055Y-100424484D01*
X140716300Y-100486666D01*
X140716300Y-102366000D01*
X140696298Y-102434121D01*
X140642642Y-102480614D01*
X140590300Y-102492000D01*
X139034000Y-102492000D01*
X138965879Y-102471998D01*
X138919386Y-102418342D01*
X138908000Y-102366000D01*
X138908000Y-97136814D01*
X139165624Y-97136814D01*
X139165848Y-97141480D01*
X139165848Y-97141485D01*
X139168018Y-97186660D01*
X139178307Y-97400852D01*
X139229878Y-97660116D01*
X139231457Y-97664514D01*
X139231459Y-97664521D01*
X139317621Y-97904501D01*
X139319204Y-97908910D01*
X139321421Y-97913036D01*
X139388801Y-98038436D01*
X139444322Y-98141767D01*
X139447117Y-98145511D01*
X139447119Y-98145513D01*
X139530243Y-98256829D01*
X139602485Y-98353573D01*
X139605792Y-98356851D01*
X139605797Y-98356857D01*
X139705379Y-98455573D01*
X139790218Y-98539674D01*
X140003396Y-98695983D01*
X140007531Y-98698159D01*
X140007535Y-98698161D01*
X140130793Y-98763010D01*
X140237336Y-98819065D01*
X140377391Y-98867974D01*
X140480884Y-98904115D01*
X140486900Y-98906216D01*
X140491493Y-98907088D01*
X140742015Y-98954651D01*
X140742018Y-98954651D01*
X140746604Y-98955522D01*
X140878673Y-98960711D01*
X141006075Y-98965718D01*
X141006081Y-98965718D01*
X141010743Y-98965901D01*
X141273515Y-98937122D01*
X141278026Y-98935934D01*
X141278028Y-98935934D01*
X141524624Y-98871011D01*
X141524626Y-98871010D01*
X141529147Y-98869820D01*
X141533444Y-98867974D01*
X141767729Y-98767317D01*
X141767731Y-98767316D01*
X141772023Y-98765472D01*
X141996807Y-98626371D01*
X142061960Y-98571215D01*
X142194996Y-98458593D01*
X142194998Y-98458591D01*
X142198563Y-98455573D01*
X142372856Y-98256829D01*
X142446867Y-98141767D01*
X142513331Y-98038436D01*
X142515859Y-98034506D01*
X142624430Y-97793488D01*
X142696183Y-97539070D01*
X142729543Y-97276840D01*
X142731987Y-97183500D01*
X142728518Y-97136814D01*
X144245624Y-97136814D01*
X144245848Y-97141480D01*
X144245848Y-97141485D01*
X144248018Y-97186660D01*
X144258307Y-97400852D01*
X144309878Y-97660116D01*
X144311457Y-97664514D01*
X144311459Y-97664521D01*
X144397621Y-97904501D01*
X144399204Y-97908910D01*
X144401421Y-97913036D01*
X144468801Y-98038436D01*
X144524322Y-98141767D01*
X144527117Y-98145511D01*
X144527119Y-98145513D01*
X144610243Y-98256829D01*
X144682485Y-98353573D01*
X144685792Y-98356851D01*
X144685797Y-98356857D01*
X144785379Y-98455573D01*
X144870218Y-98539674D01*
X145083396Y-98695983D01*
X145087531Y-98698159D01*
X145087535Y-98698161D01*
X145210793Y-98763010D01*
X145317336Y-98819065D01*
X145457391Y-98867974D01*
X145560884Y-98904115D01*
X145566900Y-98906216D01*
X145571493Y-98907088D01*
X145822015Y-98954651D01*
X145822018Y-98954651D01*
X145826604Y-98955522D01*
X145958673Y-98960711D01*
X146086075Y-98965718D01*
X146086081Y-98965718D01*
X146090743Y-98965901D01*
X146353515Y-98937122D01*
X146358026Y-98935934D01*
X146358028Y-98935934D01*
X146604624Y-98871011D01*
X146604626Y-98871010D01*
X146609147Y-98869820D01*
X146613444Y-98867974D01*
X146847729Y-98767317D01*
X146847731Y-98767316D01*
X146852023Y-98765472D01*
X147076807Y-98626371D01*
X147141960Y-98571215D01*
X147224153Y-98501634D01*
X149330000Y-98501634D01*
X149336755Y-98563816D01*
X149387885Y-98700205D01*
X149475239Y-98816761D01*
X149591795Y-98904115D01*
X149728184Y-98955245D01*
X149790366Y-98962000D01*
X152426634Y-98962000D01*
X152488816Y-98955245D01*
X152625205Y-98904115D01*
X152741761Y-98816761D01*
X152829115Y-98700205D01*
X152880245Y-98563816D01*
X152887000Y-98501634D01*
X152887000Y-95865366D01*
X152880245Y-95803184D01*
X152829115Y-95666795D01*
X152741761Y-95550239D01*
X152625205Y-95462885D01*
X152488816Y-95411755D01*
X152426634Y-95405000D01*
X149790366Y-95405000D01*
X149728184Y-95411755D01*
X149591795Y-95462885D01*
X149475239Y-95550239D01*
X149387885Y-95666795D01*
X149336755Y-95803184D01*
X149330000Y-95865366D01*
X149330000Y-98501634D01*
X147224153Y-98501634D01*
X147274996Y-98458593D01*
X147274998Y-98458591D01*
X147278563Y-98455573D01*
X147452856Y-98256829D01*
X147526867Y-98141767D01*
X147593331Y-98038436D01*
X147595859Y-98034506D01*
X147704430Y-97793488D01*
X147776183Y-97539070D01*
X147809543Y-97276840D01*
X147811987Y-97183500D01*
X147792397Y-96919884D01*
X147734057Y-96662059D01*
X147718528Y-96622126D01*
X147639942Y-96420042D01*
X147639941Y-96420040D01*
X147638249Y-96415689D01*
X147612035Y-96369823D01*
X147509397Y-96190245D01*
X147507078Y-96186187D01*
X147343425Y-95978594D01*
X147150885Y-95797470D01*
X147113712Y-95771682D01*
X146937526Y-95649458D01*
X146937521Y-95649455D01*
X146933688Y-95646796D01*
X146929497Y-95644729D01*
X146700794Y-95531945D01*
X146700791Y-95531944D01*
X146696606Y-95529880D01*
X146639650Y-95511648D01*
X146487314Y-95462885D01*
X146444847Y-95449291D01*
X146302325Y-95426080D01*
X146188553Y-95407551D01*
X146188552Y-95407551D01*
X146183941Y-95406800D01*
X146051781Y-95405070D01*
X145924298Y-95403401D01*
X145924295Y-95403401D01*
X145919621Y-95403340D01*
X145657692Y-95438986D01*
X145653202Y-95440295D01*
X145653196Y-95440296D01*
X145557220Y-95468271D01*
X145403910Y-95512957D01*
X145399663Y-95514915D01*
X145399660Y-95514916D01*
X145334711Y-95544858D01*
X145163848Y-95623627D01*
X145159939Y-95626190D01*
X144946695Y-95765999D01*
X144946690Y-95766003D01*
X144942782Y-95768565D01*
X144745567Y-95944586D01*
X144576536Y-96147824D01*
X144439401Y-96373814D01*
X144337177Y-96617591D01*
X144336026Y-96622123D01*
X144336025Y-96622126D01*
X144324726Y-96666616D01*
X144272108Y-96873801D01*
X144245624Y-97136814D01*
X142728518Y-97136814D01*
X142712397Y-96919884D01*
X142654057Y-96662059D01*
X142638528Y-96622126D01*
X142559942Y-96420042D01*
X142559941Y-96420040D01*
X142558249Y-96415689D01*
X142532035Y-96369823D01*
X142429397Y-96190245D01*
X142427078Y-96186187D01*
X142263425Y-95978594D01*
X142070885Y-95797470D01*
X142033712Y-95771682D01*
X141857526Y-95649458D01*
X141857521Y-95649455D01*
X141853688Y-95646796D01*
X141849497Y-95644729D01*
X141620794Y-95531945D01*
X141620791Y-95531944D01*
X141616606Y-95529880D01*
X141559650Y-95511648D01*
X141407314Y-95462885D01*
X141364847Y-95449291D01*
X141222325Y-95426080D01*
X141108553Y-95407551D01*
X141108552Y-95407551D01*
X141103941Y-95406800D01*
X140971781Y-95405070D01*
X140844298Y-95403401D01*
X140844295Y-95403401D01*
X140839621Y-95403340D01*
X140577692Y-95438986D01*
X140573202Y-95440295D01*
X140573196Y-95440296D01*
X140477220Y-95468271D01*
X140323910Y-95512957D01*
X140319663Y-95514915D01*
X140319660Y-95514916D01*
X140254711Y-95544858D01*
X140083848Y-95623627D01*
X140079939Y-95626190D01*
X139866695Y-95765999D01*
X139866690Y-95766003D01*
X139862782Y-95768565D01*
X139665567Y-95944586D01*
X139496536Y-96147824D01*
X139359401Y-96373814D01*
X139257177Y-96617591D01*
X139256026Y-96622123D01*
X139256025Y-96622126D01*
X139244726Y-96666616D01*
X139192108Y-96873801D01*
X139165624Y-97136814D01*
X138908000Y-97136814D01*
X138908000Y-93348134D01*
X147441500Y-93348134D01*
X147448255Y-93410316D01*
X147499385Y-93546705D01*
X147586739Y-93663261D01*
X147703295Y-93750615D01*
X147839684Y-93801745D01*
X147901866Y-93808500D01*
X149598134Y-93808500D01*
X149660316Y-93801745D01*
X149796705Y-93750615D01*
X149913261Y-93663261D01*
X149971119Y-93586062D01*
X150528493Y-93586062D01*
X150537789Y-93598077D01*
X150588994Y-93633931D01*
X150598489Y-93639414D01*
X150795947Y-93731490D01*
X150806239Y-93735236D01*
X151016688Y-93791625D01*
X151027481Y-93793528D01*
X151244525Y-93812517D01*
X151255475Y-93812517D01*
X151472519Y-93793528D01*
X151483312Y-93791625D01*
X151693761Y-93735236D01*
X151704053Y-93731490D01*
X151901511Y-93639414D01*
X151911006Y-93633931D01*
X151963048Y-93597491D01*
X151971424Y-93587012D01*
X151964356Y-93573566D01*
X151262812Y-92872022D01*
X151248868Y-92864408D01*
X151247035Y-92864539D01*
X151240420Y-92868790D01*
X150534923Y-93574287D01*
X150528493Y-93586062D01*
X149971119Y-93586062D01*
X150000615Y-93546705D01*
X150051745Y-93410316D01*
X150058500Y-93348134D01*
X150058500Y-93344815D01*
X150082153Y-93277890D01*
X150128156Y-93242196D01*
X150127141Y-93240266D01*
X150138000Y-93234558D01*
X150138245Y-93234368D01*
X150138403Y-93234347D01*
X150176434Y-93214356D01*
X150877978Y-92512812D01*
X150884356Y-92501132D01*
X151614408Y-92501132D01*
X151614539Y-92502965D01*
X151618790Y-92509580D01*
X152324287Y-93215077D01*
X152336062Y-93221507D01*
X152348077Y-93212211D01*
X152383931Y-93161006D01*
X152389414Y-93151511D01*
X152481490Y-92954053D01*
X152485236Y-92943761D01*
X152541625Y-92733312D01*
X152543528Y-92722519D01*
X152562517Y-92505475D01*
X152562517Y-92494525D01*
X152543528Y-92277481D01*
X152541625Y-92266688D01*
X152485236Y-92056239D01*
X152481490Y-92045947D01*
X152389414Y-91848489D01*
X152383931Y-91838994D01*
X152347491Y-91786952D01*
X152337012Y-91778576D01*
X152323566Y-91785644D01*
X151622022Y-92487188D01*
X151614408Y-92501132D01*
X150884356Y-92501132D01*
X150885592Y-92498868D01*
X150885461Y-92497035D01*
X150881210Y-92490420D01*
X150175713Y-91784923D01*
X150133971Y-91762129D01*
X150123971Y-91759953D01*
X150073773Y-91709747D01*
X150058549Y-91656186D01*
X150058500Y-91655281D01*
X150058500Y-91651866D01*
X150051745Y-91589684D01*
X150000615Y-91453295D01*
X149970407Y-91412988D01*
X150528576Y-91412988D01*
X150535644Y-91426434D01*
X151237188Y-92127978D01*
X151251132Y-92135592D01*
X151252965Y-92135461D01*
X151259580Y-92131210D01*
X151965077Y-91425713D01*
X151971507Y-91413938D01*
X151962211Y-91401923D01*
X151911006Y-91366069D01*
X151901511Y-91360586D01*
X151704053Y-91268510D01*
X151693761Y-91264764D01*
X151483312Y-91208375D01*
X151472519Y-91206472D01*
X151255475Y-91187483D01*
X151244525Y-91187483D01*
X151027481Y-91206472D01*
X151016688Y-91208375D01*
X150806239Y-91264764D01*
X150795947Y-91268510D01*
X150598489Y-91360586D01*
X150588994Y-91366069D01*
X150536952Y-91402509D01*
X150528576Y-91412988D01*
X149970407Y-91412988D01*
X149913261Y-91336739D01*
X149796705Y-91249385D01*
X149660316Y-91198255D01*
X149598134Y-91191500D01*
X147901866Y-91191500D01*
X147839684Y-91198255D01*
X147703295Y-91249385D01*
X147586739Y-91336739D01*
X147499385Y-91453295D01*
X147448255Y-91589684D01*
X147441500Y-91651866D01*
X147441500Y-93348134D01*
X138908000Y-93348134D01*
X138908000Y-88586062D01*
X141778493Y-88586062D01*
X141787789Y-88598077D01*
X141838994Y-88633931D01*
X141848489Y-88639414D01*
X142045947Y-88731490D01*
X142056239Y-88735236D01*
X142266688Y-88791625D01*
X142277481Y-88793528D01*
X142494525Y-88812517D01*
X142505475Y-88812517D01*
X142722519Y-88793528D01*
X142733312Y-88791625D01*
X142943761Y-88735236D01*
X142954053Y-88731490D01*
X143151511Y-88639414D01*
X143161006Y-88633931D01*
X143213048Y-88597491D01*
X143221424Y-88587012D01*
X143214356Y-88573566D01*
X142512812Y-87872022D01*
X142498868Y-87864408D01*
X142497035Y-87864539D01*
X142490420Y-87868790D01*
X141784923Y-88574287D01*
X141778493Y-88586062D01*
X138908000Y-88586062D01*
X138908000Y-87505475D01*
X141187483Y-87505475D01*
X141206472Y-87722519D01*
X141208375Y-87733312D01*
X141264764Y-87943761D01*
X141268510Y-87954053D01*
X141360586Y-88151511D01*
X141366069Y-88161006D01*
X141402509Y-88213048D01*
X141412988Y-88221424D01*
X141426434Y-88214356D01*
X142127978Y-87512812D01*
X142135592Y-87498868D01*
X142135461Y-87497035D01*
X142131210Y-87490420D01*
X141425713Y-86784923D01*
X141413938Y-86778493D01*
X141401923Y-86787789D01*
X141366069Y-86838994D01*
X141360586Y-86848489D01*
X141268510Y-87045947D01*
X141264764Y-87056239D01*
X141208375Y-87266688D01*
X141206472Y-87277481D01*
X141187483Y-87494525D01*
X141187483Y-87505475D01*
X138908000Y-87505475D01*
X138908000Y-86412988D01*
X141778576Y-86412988D01*
X141785644Y-86426434D01*
X142487188Y-87127978D01*
X142501132Y-87135592D01*
X142502965Y-87135461D01*
X142509580Y-87131210D01*
X143215077Y-86425713D01*
X143221507Y-86413938D01*
X143212211Y-86401923D01*
X143161006Y-86366069D01*
X143151511Y-86360586D01*
X142954053Y-86268510D01*
X142943761Y-86264764D01*
X142733312Y-86208375D01*
X142722519Y-86206472D01*
X142505475Y-86187483D01*
X142494525Y-86187483D01*
X142277481Y-86206472D01*
X142266688Y-86208375D01*
X142056239Y-86264764D01*
X142045947Y-86268510D01*
X141848489Y-86360586D01*
X141838994Y-86366069D01*
X141786952Y-86402509D01*
X141778576Y-86412988D01*
X138908000Y-86412988D01*
X138908000Y-84634000D01*
X138928002Y-84565879D01*
X138981658Y-84519386D01*
X139034000Y-84508000D01*
X155616000Y-84508000D01*
X155684121Y-84528002D01*
G37*
%TD.AperFunction*%
%TD*%
M02*
