%TF.GenerationSoftware,KiCad,Pcbnew,(5.99.0-7340-g1a9878d6d3)*%
%TF.CreationDate,2020-12-04T16:26:35+02:00*%
%TF.ProjectId,borraja,626f7272-616a-4612-9e6b-696361645f70,rev?*%
%TF.SameCoordinates,Original*%
%TF.FileFunction,Copper,L1,Top*%
%TF.FilePolarity,Positive*%
%FSLAX46Y46*%
G04 Gerber Fmt 4.6, Leading zero omitted, Abs format (unit mm)*
G04 Created by KiCad (PCBNEW (5.99.0-7340-g1a9878d6d3)) date 2020-12-04 16:26:35*
%MOMM*%
%LPD*%
G01*
G04 APERTURE LIST*
G04 Aperture macros list*
%AMRoundRect*
0 Rectangle with rounded corners*
0 $1 Rounding radius*
0 $2 $3 $4 $5 $6 $7 $8 $9 X,Y pos of 4 corners*
0 Add a 4 corners polygon primitive as box body*
4,1,4,$2,$3,$4,$5,$6,$7,$8,$9,$2,$3,0*
0 Add four circle primitives for the rounded corners*
1,1,$1+$1,$2,$3,0*
1,1,$1+$1,$4,$5,0*
1,1,$1+$1,$6,$7,0*
1,1,$1+$1,$8,$9,0*
0 Add four rect primitives between the rounded corners*
20,1,$1+$1,$2,$3,$4,$5,0*
20,1,$1+$1,$4,$5,$6,$7,0*
20,1,$1+$1,$6,$7,$8,$9,0*
20,1,$1+$1,$8,$9,$2,$3,0*%
G04 Aperture macros list end*
%TA.AperFunction,ComponentPad*%
%ADD10O,1.930400X1.930400*%
%TD*%
%TA.AperFunction,ComponentPad*%
%ADD11R,1.930400X1.930400*%
%TD*%
%TA.AperFunction,ComponentPad*%
%ADD12O,2.540000X2.540000*%
%TD*%
%TA.AperFunction,ComponentPad*%
%ADD13R,2.540000X2.540000*%
%TD*%
%TA.AperFunction,SMDPad,CuDef*%
%ADD14RoundRect,0.218750X0.256250X-0.218750X0.256250X0.218750X-0.256250X0.218750X-0.256250X-0.218750X0*%
%TD*%
%TA.AperFunction,SMDPad,CuDef*%
%ADD15RoundRect,0.218750X-0.218750X-0.256250X0.218750X-0.256250X0.218750X0.256250X-0.218750X0.256250X0*%
%TD*%
%TA.AperFunction,SMDPad,CuDef*%
%ADD16R,0.900000X0.800000*%
%TD*%
%TA.AperFunction,ComponentPad*%
%ADD17O,2.200000X2.200000*%
%TD*%
%TA.AperFunction,ComponentPad*%
%ADD18R,2.200000X2.200000*%
%TD*%
%TA.AperFunction,ComponentPad*%
%ADD19C,1.600000*%
%TD*%
%TA.AperFunction,ComponentPad*%
%ADD20R,1.600000X1.600000*%
%TD*%
%TA.AperFunction,ViaPad*%
%ADD21C,0.800000*%
%TD*%
%TA.AperFunction,Conductor*%
%ADD22C,0.350000*%
%TD*%
G04 APERTURE END LIST*
D10*
%TO.P,J1,4,Pin_4*%
%TO.N,OUT*%
X149810000Y-101500000D03*
%TO.P,J1,3,Pin_3*%
%TO.N,+9V*%
X147270000Y-101500000D03*
%TO.P,J1,2,Pin_2*%
%TO.N,GND*%
X144730000Y-101500000D03*
D11*
%TO.P,J1,1,Pin_1*%
%TO.N,IN*%
X142190000Y-101500000D03*
%TD*%
D12*
%TO.P,RV1,3,3*%
%TO.N,Net-(R3-Pad1)*%
X140948500Y-97183500D03*
%TO.P,RV1,2,2*%
%TO.N,Net-(C1-Pad1)*%
X146028500Y-97183500D03*
D13*
%TO.P,RV1,1,1*%
X151108500Y-97183500D03*
%TD*%
D14*
%TO.P,R6,2*%
%TO.N,GND*%
X140000000Y-100462500D03*
%TO.P,R6,1*%
%TO.N,IN*%
X140000000Y-102037500D03*
%TD*%
%TO.P,R5,2*%
%TO.N,GND*%
X152000000Y-100462500D03*
%TO.P,R5,1*%
%TO.N,OUT*%
X152000000Y-102037500D03*
%TD*%
D15*
%TO.P,R3,2*%
%TO.N,GND*%
X146537500Y-94000000D03*
%TO.P,R3,1*%
%TO.N,Net-(R3-Pad1)*%
X144962500Y-94000000D03*
%TD*%
%TO.P,R2,2*%
%TO.N,Net-(R2-Pad2)*%
X146537500Y-91750000D03*
%TO.P,R2,1*%
%TO.N,VCC*%
X144962500Y-91750000D03*
%TD*%
%TO.P,R1,2*%
%TO.N,Net-(R1-Pad2)*%
X141287500Y-91250000D03*
%TO.P,R1,1*%
%TO.N,IN*%
X139712500Y-91250000D03*
%TD*%
D16*
%TO.P,Q1,3,G*%
%TO.N,Net-(R1-Pad2)*%
X140250000Y-93750000D03*
%TO.P,Q1,2,S*%
%TO.N,Net-(R2-Pad2)*%
X142250000Y-92800000D03*
%TO.P,Q1,1,D*%
%TO.N,Net-(R3-Pad1)*%
X142250000Y-94700000D03*
%TD*%
D17*
%TO.P,D1,2,A*%
%TO.N,+9V*%
X154500000Y-101410000D03*
D18*
%TO.P,D1,1,K*%
%TO.N,VCC*%
X154500000Y-91250000D03*
%TD*%
D19*
%TO.P,C3,2*%
%TO.N,GND*%
X142500000Y-87500000D03*
D20*
%TO.P,C3,1*%
%TO.N,VCC*%
X145000000Y-87500000D03*
%TD*%
D19*
%TO.P,C2,2*%
%TO.N,OUT*%
X151500000Y-86750000D03*
D20*
%TO.P,C2,1*%
%TO.N,Net-(R2-Pad2)*%
X149000000Y-86750000D03*
%TD*%
D19*
%TO.P,C1,2*%
%TO.N,GND*%
X151250000Y-92500000D03*
D20*
%TO.P,C1,1*%
%TO.N,Net-(C1-Pad1)*%
X148750000Y-92500000D03*
%TD*%
D21*
%TO.N,GND*%
X154500000Y-98500000D03*
%TD*%
D22*
%TO.N,Net-(R2-Pad2)*%
X146537500Y-91750000D02*
X146537500Y-89212500D01*
X146537500Y-89212500D02*
X149000000Y-86750000D01*
%TO.N,Net-(R1-Pad2)*%
X141287500Y-91250000D02*
X141287500Y-92712500D01*
X141287500Y-92712500D02*
X140250000Y-93750000D01*
%TO.N,IN*%
X140000000Y-102037500D02*
X139149990Y-101187490D01*
X139149990Y-101187490D02*
X139149990Y-91812510D01*
X139149990Y-91812510D02*
X139712500Y-91250000D01*
%TO.N,Net-(R2-Pad2)*%
X142250000Y-92800000D02*
X145487500Y-92800000D01*
X145487500Y-92800000D02*
X146537500Y-91750000D01*
%TO.N,Net-(R3-Pad1)*%
X142250000Y-94700000D02*
X144262500Y-94700000D01*
X144262500Y-94700000D02*
X144962500Y-94000000D01*
X142250000Y-94700000D02*
X142250000Y-95882000D01*
X142250000Y-95882000D02*
X140948500Y-97183500D01*
%TO.N,VCC*%
X144962500Y-91750000D02*
X144962500Y-87537500D01*
X144962500Y-87537500D02*
X145000000Y-87500000D01*
%TO.N,OUT*%
X152000000Y-102037500D02*
X152850010Y-101187490D01*
X152850010Y-101187490D02*
X152850010Y-88100010D01*
X152850010Y-88100010D02*
X151500000Y-86750000D01*
%TO.N,GND*%
X152000000Y-100462500D02*
X151697299Y-100159799D01*
X151697299Y-100159799D02*
X146070201Y-100159799D01*
X146070201Y-100159799D02*
X144730000Y-101500000D01*
%TO.N,OUT*%
X152000000Y-102037500D02*
X150347500Y-102037500D01*
X150347500Y-102037500D02*
X149810000Y-101500000D01*
%TO.N,Net-(C1-Pad1)*%
X149000000Y-92500000D02*
X149000000Y-95075000D01*
X149000000Y-95075000D02*
X151108500Y-97183500D01*
X146028500Y-97183500D02*
X151108500Y-97183500D01*
%TO.N,IN*%
X142190000Y-101500000D02*
X140537500Y-101500000D01*
X140537500Y-101500000D02*
X140000000Y-102037500D01*
%TD*%
%TA.AperFunction,Conductor*%
%TO.N,GND*%
G36*
X147364852Y-92546775D02*
G01*
X147417681Y-92594205D01*
X147436500Y-92660449D01*
X147436500Y-93094061D01*
X147416498Y-93162182D01*
X147362842Y-93208675D01*
X147292568Y-93218779D01*
X147223847Y-93185534D01*
X147199902Y-93162851D01*
X147188255Y-93154138D01*
X147054360Y-93076365D01*
X147041035Y-93070571D01*
X146892016Y-93025438D01*
X146879393Y-93022990D01*
X146815066Y-93017249D01*
X146809596Y-93017006D01*
X146794376Y-93021475D01*
X146793171Y-93022865D01*
X146791500Y-93030548D01*
X146791500Y-93727885D01*
X146795975Y-93743124D01*
X146797365Y-93744329D01*
X146805048Y-93746000D01*
X147464885Y-93746000D01*
X147480124Y-93741525D01*
X147484782Y-93736150D01*
X147544508Y-93697767D01*
X147615504Y-93697767D01*
X147662516Y-93723436D01*
X147672381Y-93731984D01*
X147680579Y-93735728D01*
X147708831Y-93748630D01*
X147805330Y-93792700D01*
X147814245Y-93793982D01*
X147814246Y-93793982D01*
X147945552Y-93812861D01*
X147945559Y-93812862D01*
X147950000Y-93813500D01*
X148190501Y-93813500D01*
X148258622Y-93833502D01*
X148305115Y-93887158D01*
X148316501Y-93939500D01*
X148316501Y-95047248D01*
X148316209Y-95055817D01*
X148313044Y-95102250D01*
X148312445Y-95111033D01*
X148322600Y-95169217D01*
X148323023Y-95171643D01*
X148323985Y-95178165D01*
X148331375Y-95239230D01*
X148334061Y-95246340D01*
X148335260Y-95251220D01*
X148338125Y-95261695D01*
X148339579Y-95266511D01*
X148340886Y-95273998D01*
X148365624Y-95330354D01*
X148368109Y-95336442D01*
X148386001Y-95383792D01*
X148389850Y-95393979D01*
X148394151Y-95400237D01*
X148396491Y-95404713D01*
X148401768Y-95414194D01*
X148404325Y-95418518D01*
X148407379Y-95425475D01*
X148412002Y-95431500D01*
X148412005Y-95431505D01*
X148444847Y-95474306D01*
X148448716Y-95479631D01*
X148483550Y-95530313D01*
X148489226Y-95535370D01*
X148528069Y-95569978D01*
X148533345Y-95574959D01*
X149243291Y-96284905D01*
X149277317Y-96347217D01*
X149272252Y-96418032D01*
X149229705Y-96474868D01*
X149163185Y-96499679D01*
X149154196Y-96500000D01*
X147757243Y-96500000D01*
X147689122Y-96479998D01*
X147642629Y-96426342D01*
X147640059Y-96420256D01*
X147639953Y-96420033D01*
X147638261Y-96415683D01*
X147507089Y-96186179D01*
X147351598Y-95988941D01*
X147346326Y-95982253D01*
X147346323Y-95982250D01*
X147343434Y-95978585D01*
X147150893Y-95797460D01*
X146933695Y-95646784D01*
X146929505Y-95644718D01*
X146929502Y-95644716D01*
X146700799Y-95531933D01*
X146700796Y-95531932D01*
X146696611Y-95529868D01*
X146639649Y-95511634D01*
X146449295Y-95450701D01*
X146449297Y-95450701D01*
X146444850Y-95449278D01*
X146298692Y-95425475D01*
X146188554Y-95407538D01*
X146188553Y-95407538D01*
X146183942Y-95406787D01*
X146051781Y-95405057D01*
X145924297Y-95403388D01*
X145924294Y-95403388D01*
X145919620Y-95403327D01*
X145657689Y-95438974D01*
X145653203Y-95440282D01*
X145653201Y-95440282D01*
X145622337Y-95449278D01*
X145403905Y-95512945D01*
X145163842Y-95623616D01*
X145159937Y-95626176D01*
X145159932Y-95626179D01*
X144946687Y-95765988D01*
X144946682Y-95765992D01*
X144942774Y-95768554D01*
X144745557Y-95944577D01*
X144576525Y-96147816D01*
X144439390Y-96373808D01*
X144437581Y-96378122D01*
X144437580Y-96378124D01*
X144352058Y-96582072D01*
X144337165Y-96617587D01*
X144272095Y-96873798D01*
X144271627Y-96878449D01*
X144271626Y-96878453D01*
X144266986Y-96924534D01*
X144245611Y-97136813D01*
X144245835Y-97141479D01*
X144245835Y-97141484D01*
X144248005Y-97186660D01*
X144258294Y-97400854D01*
X144309865Y-97660120D01*
X144399192Y-97908915D01*
X144401408Y-97913039D01*
X144468790Y-98038443D01*
X144524311Y-98141774D01*
X144527106Y-98145517D01*
X144527108Y-98145520D01*
X144679683Y-98349843D01*
X144679688Y-98349849D01*
X144682475Y-98353581D01*
X144685784Y-98356861D01*
X144685789Y-98356867D01*
X144785539Y-98455750D01*
X144870209Y-98539684D01*
X144873971Y-98542442D01*
X144873974Y-98542445D01*
X145079615Y-98693227D01*
X145083389Y-98695994D01*
X145087532Y-98698174D01*
X145087534Y-98698175D01*
X145313181Y-98816894D01*
X145313186Y-98816896D01*
X145317331Y-98819077D01*
X145321754Y-98820622D01*
X145321755Y-98820622D01*
X145518213Y-98889228D01*
X145566896Y-98906229D01*
X145571489Y-98907101D01*
X145822013Y-98954664D01*
X145822016Y-98954664D01*
X145826602Y-98955535D01*
X145958673Y-98960725D01*
X146086075Y-98965731D01*
X146086081Y-98965731D01*
X146090743Y-98965914D01*
X146199158Y-98954040D01*
X146348864Y-98937645D01*
X146348869Y-98937644D01*
X146353517Y-98937135D01*
X146609151Y-98869832D01*
X146781764Y-98795672D01*
X146847726Y-98767333D01*
X146847729Y-98767331D01*
X146852029Y-98765484D01*
X146856009Y-98763021D01*
X146856013Y-98763019D01*
X147072842Y-98628841D01*
X147072846Y-98628838D01*
X147076815Y-98626382D01*
X147278572Y-98455582D01*
X147452866Y-98256837D01*
X147595870Y-98034513D01*
X147637882Y-97941250D01*
X147684097Y-97887355D01*
X147752764Y-97867000D01*
X149199000Y-97867000D01*
X149267121Y-97887002D01*
X149313614Y-97940658D01*
X149325000Y-97993000D01*
X149325000Y-98453500D01*
X149330227Y-98526579D01*
X149332131Y-98533062D01*
X149360254Y-98628841D01*
X149371404Y-98666816D01*
X149390156Y-98695994D01*
X149445551Y-98782191D01*
X149445553Y-98782194D01*
X149450423Y-98789771D01*
X149457233Y-98795672D01*
X149554069Y-98879582D01*
X149554072Y-98879584D01*
X149560881Y-98885484D01*
X149569079Y-98889228D01*
X149671373Y-98935944D01*
X149693830Y-98946200D01*
X149702745Y-98947482D01*
X149702746Y-98947482D01*
X149834052Y-98966361D01*
X149834059Y-98966362D01*
X149838500Y-98967000D01*
X152040510Y-98967000D01*
X152108631Y-98987002D01*
X152155124Y-99040658D01*
X152166510Y-99093000D01*
X152166510Y-100590500D01*
X152146508Y-100658621D01*
X152092852Y-100705114D01*
X152040509Y-100716500D01*
X151871999Y-100716499D01*
X151803879Y-100696497D01*
X151757386Y-100642841D01*
X151746000Y-100590499D01*
X151746001Y-99535115D01*
X151741526Y-99519876D01*
X151740136Y-99518671D01*
X151732453Y-99517000D01*
X151704527Y-99517000D01*
X151697223Y-99517425D01*
X151582684Y-99530778D01*
X151568532Y-99534123D01*
X151422981Y-99586956D01*
X151409982Y-99593466D01*
X151280489Y-99678365D01*
X151269337Y-99687689D01*
X151162851Y-99800098D01*
X151154138Y-99811745D01*
X151076365Y-99945640D01*
X151070571Y-99958965D01*
X151025438Y-100107984D01*
X151022990Y-100120607D01*
X151017249Y-100184934D01*
X151017000Y-100190529D01*
X151017000Y-100315272D01*
X150996998Y-100383393D01*
X150943342Y-100429886D01*
X150873068Y-100439990D01*
X150812908Y-100414154D01*
X150792415Y-100397969D01*
X150687702Y-100315272D01*
X150632355Y-100271561D01*
X150632351Y-100271559D01*
X150628300Y-100268359D01*
X150416153Y-100151248D01*
X150411284Y-100149524D01*
X150411280Y-100149522D01*
X150192603Y-100072084D01*
X150192599Y-100072083D01*
X150187728Y-100070358D01*
X150182638Y-100069451D01*
X150182633Y-100069450D01*
X150050093Y-100045842D01*
X149949158Y-100027863D01*
X149858181Y-100026751D01*
X149712021Y-100024965D01*
X149712019Y-100024965D01*
X149706851Y-100024902D01*
X149467314Y-100061556D01*
X149236981Y-100136841D01*
X149232393Y-100139229D01*
X149232389Y-100139231D01*
X149118479Y-100198529D01*
X149022036Y-100248734D01*
X149017903Y-100251837D01*
X149017900Y-100251839D01*
X148837302Y-100387436D01*
X148828252Y-100394231D01*
X148660834Y-100569424D01*
X148646458Y-100590499D01*
X148645237Y-100592289D01*
X148590325Y-100637291D01*
X148519800Y-100645462D01*
X148456053Y-100614207D01*
X148442969Y-100599958D01*
X148441559Y-100597778D01*
X148384253Y-100534800D01*
X148281949Y-100422369D01*
X148281947Y-100422368D01*
X148278471Y-100418547D01*
X148274420Y-100415348D01*
X148274416Y-100415344D01*
X148092355Y-100271561D01*
X148092351Y-100271559D01*
X148088300Y-100268359D01*
X147876153Y-100151248D01*
X147871284Y-100149524D01*
X147871280Y-100149522D01*
X147652603Y-100072084D01*
X147652599Y-100072083D01*
X147647728Y-100070358D01*
X147642638Y-100069451D01*
X147642633Y-100069450D01*
X147510093Y-100045842D01*
X147409158Y-100027863D01*
X147318181Y-100026751D01*
X147172021Y-100024965D01*
X147172019Y-100024965D01*
X147166851Y-100024902D01*
X146927314Y-100061556D01*
X146696981Y-100136841D01*
X146692393Y-100139229D01*
X146692389Y-100139231D01*
X146578479Y-100198529D01*
X146482036Y-100248734D01*
X146477903Y-100251837D01*
X146477900Y-100251839D01*
X146297302Y-100387436D01*
X146288252Y-100394231D01*
X146120834Y-100569424D01*
X146104940Y-100592723D01*
X146050032Y-100637725D01*
X145979507Y-100645898D01*
X145915759Y-100614644D01*
X145901027Y-100598600D01*
X145897686Y-100594262D01*
X145741608Y-100422735D01*
X145734075Y-100415710D01*
X145552081Y-100271981D01*
X145543494Y-100266276D01*
X145340482Y-100154207D01*
X145331070Y-100149977D01*
X145112469Y-100072566D01*
X145102512Y-100069936D01*
X145001836Y-100052002D01*
X144988541Y-100053461D01*
X144984000Y-100068019D01*
X144984000Y-101628000D01*
X144963998Y-101696121D01*
X144910342Y-101742614D01*
X144858000Y-101754000D01*
X144602000Y-101754000D01*
X144533879Y-101733998D01*
X144487386Y-101680342D01*
X144476000Y-101628000D01*
X144476000Y-100066605D01*
X144472082Y-100053261D01*
X144457806Y-100051274D01*
X144392542Y-100061261D01*
X144382515Y-100063650D01*
X144162092Y-100135695D01*
X144152582Y-100139692D01*
X143946891Y-100246768D01*
X143938166Y-100252262D01*
X143803476Y-100353391D01*
X143736991Y-100378297D01*
X143667596Y-100363305D01*
X143621826Y-100320753D01*
X143543277Y-100198529D01*
X143492127Y-100154207D01*
X143439631Y-100108718D01*
X143439628Y-100108716D01*
X143432819Y-100102816D01*
X143359758Y-100069450D01*
X143308064Y-100045842D01*
X143308063Y-100045842D01*
X143299870Y-100042100D01*
X143290955Y-100040818D01*
X143290954Y-100040818D01*
X143159648Y-100021939D01*
X143159641Y-100021938D01*
X143155200Y-100021300D01*
X141224800Y-100021300D01*
X141151721Y-100026527D01*
X141083552Y-100046543D01*
X141012558Y-100046543D01*
X140952832Y-100008160D01*
X140929617Y-99968639D01*
X140913043Y-99922979D01*
X140906534Y-99909982D01*
X140821635Y-99780489D01*
X140812311Y-99769337D01*
X140699902Y-99662851D01*
X140688255Y-99654138D01*
X140554360Y-99576365D01*
X140541035Y-99570571D01*
X140392016Y-99525438D01*
X140379393Y-99522990D01*
X140315066Y-99517249D01*
X140309471Y-99517000D01*
X140272115Y-99517000D01*
X140256876Y-99521475D01*
X140255671Y-99522865D01*
X140254000Y-99530548D01*
X140253999Y-100590500D01*
X140233997Y-100658621D01*
X140180341Y-100705114D01*
X140127998Y-100716500D01*
X139959489Y-100716499D01*
X139891369Y-100696497D01*
X139844876Y-100642841D01*
X139833490Y-100590499D01*
X139833490Y-98815272D01*
X139853492Y-98747151D01*
X139907148Y-98700658D01*
X139977422Y-98690554D01*
X140018157Y-98703764D01*
X140233181Y-98816894D01*
X140233186Y-98816896D01*
X140237331Y-98819077D01*
X140241754Y-98820622D01*
X140241755Y-98820622D01*
X140438213Y-98889228D01*
X140486896Y-98906229D01*
X140491489Y-98907101D01*
X140742013Y-98954664D01*
X140742016Y-98954664D01*
X140746602Y-98955535D01*
X140878673Y-98960725D01*
X141006075Y-98965731D01*
X141006081Y-98965731D01*
X141010743Y-98965914D01*
X141119158Y-98954040D01*
X141268864Y-98937645D01*
X141268869Y-98937644D01*
X141273517Y-98937135D01*
X141529151Y-98869832D01*
X141701764Y-98795672D01*
X141767726Y-98767333D01*
X141767729Y-98767331D01*
X141772029Y-98765484D01*
X141776009Y-98763021D01*
X141776013Y-98763019D01*
X141992842Y-98628841D01*
X141992846Y-98628838D01*
X141996815Y-98626382D01*
X142198572Y-98455582D01*
X142372866Y-98256837D01*
X142515870Y-98034513D01*
X142624442Y-97793493D01*
X142696196Y-97539073D01*
X142729556Y-97276841D01*
X142732000Y-97183500D01*
X142712410Y-96919882D01*
X142654070Y-96662055D01*
X142652378Y-96657705D01*
X142652375Y-96657694D01*
X142622967Y-96582072D01*
X142616920Y-96511333D01*
X142651305Y-96447310D01*
X142713679Y-96384936D01*
X142719945Y-96379082D01*
X142755928Y-96347692D01*
X142761655Y-96342696D01*
X142797022Y-96292373D01*
X142800948Y-96287088D01*
X142834229Y-96244643D01*
X142834231Y-96244639D01*
X142838918Y-96238662D01*
X142842044Y-96231739D01*
X142844644Y-96227446D01*
X142850043Y-96217980D01*
X142852411Y-96213563D01*
X142856777Y-96207351D01*
X142879122Y-96150039D01*
X142881678Y-96143958D01*
X142903869Y-96094811D01*
X142906994Y-96087890D01*
X142908379Y-96080418D01*
X142909883Y-96075617D01*
X142912858Y-96065175D01*
X142914108Y-96060306D01*
X142916870Y-96053223D01*
X142924904Y-95992202D01*
X142925931Y-95985714D01*
X142937140Y-95925232D01*
X142933709Y-95865723D01*
X142933500Y-95858470D01*
X142933500Y-95622925D01*
X142953502Y-95554804D01*
X142991380Y-95516927D01*
X143028688Y-95492951D01*
X143028691Y-95492948D01*
X143036271Y-95488077D01*
X143045947Y-95476911D01*
X143089206Y-95426987D01*
X143148932Y-95388604D01*
X143184430Y-95383500D01*
X144234763Y-95383500D01*
X144243332Y-95383792D01*
X144290957Y-95387039D01*
X144290961Y-95387039D01*
X144298533Y-95387555D01*
X144306010Y-95386250D01*
X144306012Y-95386250D01*
X144343641Y-95379683D01*
X144359129Y-95376979D01*
X144365614Y-95376022D01*
X144426730Y-95368626D01*
X144433836Y-95365941D01*
X144438726Y-95364740D01*
X144449188Y-95361878D01*
X144454020Y-95360419D01*
X144461498Y-95359114D01*
X144468447Y-95356064D01*
X144468456Y-95356061D01*
X144517830Y-95334388D01*
X144523933Y-95331897D01*
X144574369Y-95312838D01*
X144574371Y-95312837D01*
X144581479Y-95310151D01*
X144587744Y-95305845D01*
X144592237Y-95303496D01*
X144601681Y-95298240D01*
X144606021Y-95295674D01*
X144612975Y-95292621D01*
X144661784Y-95255168D01*
X144667122Y-95251290D01*
X144711554Y-95220753D01*
X144711556Y-95220752D01*
X144717813Y-95216451D01*
X144757487Y-95171922D01*
X144762467Y-95166647D01*
X144908709Y-95020405D01*
X144971021Y-94986379D01*
X144997804Y-94983500D01*
X145224135Y-94983500D01*
X145314213Y-94972998D01*
X145342432Y-94969708D01*
X145342433Y-94969708D01*
X145349704Y-94968860D01*
X145356581Y-94966364D01*
X145356584Y-94966363D01*
X145502243Y-94913491D01*
X145509122Y-94910994D01*
X145650951Y-94818007D01*
X145656347Y-94812311D01*
X145660756Y-94807658D01*
X145722125Y-94771961D01*
X145793052Y-94775109D01*
X145838881Y-94802840D01*
X145875098Y-94837149D01*
X145886745Y-94845862D01*
X146020640Y-94923635D01*
X146033965Y-94929429D01*
X146182984Y-94974562D01*
X146195607Y-94977010D01*
X146259934Y-94982751D01*
X146265404Y-94982994D01*
X146280624Y-94978525D01*
X146281829Y-94977135D01*
X146283500Y-94969452D01*
X146283500Y-94267548D01*
X146791500Y-94267548D01*
X146791500Y-94964885D01*
X146795975Y-94980124D01*
X146797365Y-94981329D01*
X146802985Y-94982551D01*
X146917319Y-94969222D01*
X146931466Y-94965878D01*
X147077022Y-94913043D01*
X147090017Y-94906535D01*
X147219511Y-94821635D01*
X147230663Y-94812311D01*
X147337149Y-94699902D01*
X147345862Y-94688255D01*
X147423635Y-94554360D01*
X147429429Y-94541035D01*
X147474562Y-94392016D01*
X147477010Y-94379393D01*
X147482751Y-94315066D01*
X147483000Y-94309471D01*
X147483000Y-94272115D01*
X147478525Y-94256876D01*
X147477135Y-94255671D01*
X147469452Y-94254000D01*
X146809615Y-94254000D01*
X146794376Y-94258475D01*
X146793171Y-94259865D01*
X146791500Y-94267548D01*
X146283500Y-94267548D01*
X146283500Y-93022805D01*
X146303502Y-92954684D01*
X146320405Y-92933710D01*
X146483710Y-92770405D01*
X146546022Y-92736379D01*
X146572805Y-92733500D01*
X146799135Y-92733500D01*
X146889213Y-92722998D01*
X146917432Y-92719708D01*
X146917433Y-92719708D01*
X146924704Y-92718860D01*
X146931581Y-92716364D01*
X146931584Y-92716363D01*
X147077243Y-92663491D01*
X147084122Y-92660994D01*
X147185992Y-92594205D01*
X147219826Y-92572023D01*
X147219828Y-92572022D01*
X147225951Y-92568007D01*
X147230141Y-92563584D01*
X147294767Y-92535435D01*
X147364852Y-92546775D01*
G37*
%TD.AperFunction*%
%TA.AperFunction,Conductor*%
G36*
X155676392Y-92878094D02*
G01*
X155726591Y-92928299D01*
X155742000Y-92988678D01*
X155742000Y-100082101D01*
X155721998Y-100150222D01*
X155668342Y-100196715D01*
X155598068Y-100206819D01*
X155534170Y-100177912D01*
X155466490Y-100120108D01*
X155448392Y-100104651D01*
X155232514Y-99972361D01*
X155227944Y-99970468D01*
X155227940Y-99970466D01*
X155003172Y-99877364D01*
X155003170Y-99877363D01*
X154998599Y-99875470D01*
X154913894Y-99855134D01*
X154757220Y-99817520D01*
X154757214Y-99817519D01*
X154752407Y-99816365D01*
X154500000Y-99796500D01*
X154247593Y-99816365D01*
X154242786Y-99817519D01*
X154242780Y-99817520D01*
X154086106Y-99855134D01*
X154001401Y-99875470D01*
X153996830Y-99877363D01*
X153996828Y-99877364D01*
X153772060Y-99970466D01*
X153772056Y-99970468D01*
X153767486Y-99972361D01*
X153763266Y-99974947D01*
X153725345Y-99998185D01*
X153656811Y-100016723D01*
X153589135Y-99995267D01*
X153543802Y-99940627D01*
X153533510Y-99890752D01*
X153533510Y-92989500D01*
X153553512Y-92921379D01*
X153607168Y-92874886D01*
X153659510Y-92863500D01*
X155600000Y-92863500D01*
X155606762Y-92863016D01*
X155607019Y-92862998D01*
X155676392Y-92878094D01*
G37*
%TD.AperFunction*%
%TA.AperFunction,Conductor*%
G36*
X150508586Y-87609087D02*
G01*
X150655698Y-87756199D01*
X150660206Y-87759356D01*
X150660209Y-87759358D01*
X150810424Y-87864539D01*
X150843250Y-87887524D01*
X150848232Y-87889847D01*
X150848237Y-87889850D01*
X151045775Y-87981963D01*
X151050757Y-87984286D01*
X151056065Y-87985708D01*
X151056067Y-87985709D01*
X151266598Y-88042121D01*
X151266600Y-88042121D01*
X151271913Y-88043545D01*
X151500000Y-88063500D01*
X151728087Y-88043545D01*
X151733685Y-88042045D01*
X151735780Y-88041484D01*
X151736867Y-88041510D01*
X151738817Y-88041166D01*
X151738886Y-88041558D01*
X151806756Y-88043176D01*
X151857482Y-88074097D01*
X152129606Y-88346221D01*
X152163632Y-88408533D01*
X152166511Y-88435316D01*
X152166511Y-91302927D01*
X152146509Y-91371048D01*
X152092853Y-91417541D01*
X152022579Y-91427645D01*
X151968240Y-91406140D01*
X151911008Y-91366066D01*
X151901513Y-91360583D01*
X151704057Y-91268509D01*
X151693761Y-91264761D01*
X151483310Y-91208370D01*
X151472523Y-91206468D01*
X151255475Y-91187479D01*
X151244525Y-91187479D01*
X151027477Y-91206468D01*
X151016690Y-91208370D01*
X150806239Y-91264761D01*
X150795943Y-91268509D01*
X150598487Y-91360583D01*
X150588992Y-91366066D01*
X150536950Y-91402506D01*
X150528574Y-91412985D01*
X150535642Y-91426431D01*
X151520115Y-92410905D01*
X151554141Y-92473217D01*
X151549076Y-92544033D01*
X151520115Y-92589095D01*
X151250000Y-92859210D01*
X150534921Y-93574290D01*
X150528491Y-93586065D01*
X150537787Y-93598080D01*
X150588992Y-93633934D01*
X150598487Y-93639417D01*
X150795943Y-93731491D01*
X150806239Y-93735239D01*
X151016690Y-93791630D01*
X151027477Y-93793532D01*
X151244525Y-93812521D01*
X151255475Y-93812521D01*
X151472523Y-93793532D01*
X151483310Y-93791630D01*
X151693761Y-93735239D01*
X151704057Y-93731491D01*
X151901513Y-93639417D01*
X151911009Y-93633934D01*
X151968239Y-93593861D01*
X152035513Y-93571173D01*
X152104374Y-93588458D01*
X152152958Y-93640228D01*
X152166510Y-93697074D01*
X152166510Y-95274000D01*
X152146508Y-95342121D01*
X152092852Y-95388614D01*
X152040510Y-95400000D01*
X150343804Y-95400000D01*
X150275683Y-95379998D01*
X150254709Y-95363095D01*
X149720405Y-94828791D01*
X149686379Y-94766479D01*
X149683500Y-94739696D01*
X149683500Y-93883112D01*
X149703502Y-93814991D01*
X149756451Y-93769112D01*
X149763316Y-93767096D01*
X149842496Y-93716210D01*
X149878691Y-93692949D01*
X149878694Y-93692947D01*
X149886271Y-93688077D01*
X149904451Y-93667096D01*
X149976082Y-93584431D01*
X149976084Y-93584428D01*
X149981984Y-93577619D01*
X149991328Y-93557158D01*
X150038958Y-93452864D01*
X150038958Y-93452863D01*
X150042700Y-93444670D01*
X150058666Y-93333622D01*
X150088159Y-93269041D01*
X150128602Y-93243050D01*
X150127139Y-93240267D01*
X150176430Y-93214359D01*
X150877979Y-92512811D01*
X150885592Y-92498868D01*
X150885461Y-92497034D01*
X150881210Y-92490420D01*
X150175706Y-91784917D01*
X150132379Y-91761259D01*
X150125818Y-91759832D01*
X150075610Y-91709636D01*
X150060512Y-91658227D01*
X150058755Y-91633659D01*
X150058755Y-91633658D01*
X150058273Y-91626921D01*
X150017096Y-91486684D01*
X149979154Y-91427645D01*
X149942949Y-91371309D01*
X149942947Y-91371306D01*
X149938077Y-91363729D01*
X149931267Y-91357828D01*
X149834431Y-91273918D01*
X149834428Y-91273916D01*
X149827619Y-91268016D01*
X149819421Y-91264272D01*
X149702864Y-91211042D01*
X149702863Y-91211042D01*
X149694670Y-91207300D01*
X149685755Y-91206018D01*
X149685754Y-91206018D01*
X149554448Y-91187139D01*
X149554441Y-91187138D01*
X149550000Y-91186500D01*
X147950000Y-91186500D01*
X147876921Y-91191727D01*
X147823884Y-91207300D01*
X147745330Y-91230365D01*
X147745328Y-91230366D01*
X147736684Y-91232904D01*
X147627727Y-91302927D01*
X147625054Y-91304645D01*
X147556934Y-91324647D01*
X147488813Y-91304645D01*
X147442320Y-91250990D01*
X147438494Y-91241639D01*
X147413490Y-91172754D01*
X147413490Y-91172753D01*
X147410994Y-91165878D01*
X147318007Y-91024049D01*
X147260347Y-90969427D01*
X147224649Y-90908057D01*
X147221000Y-90877954D01*
X147221000Y-89547804D01*
X147241002Y-89479683D01*
X147257905Y-89458709D01*
X148616210Y-88100405D01*
X148678522Y-88066379D01*
X148705305Y-88063500D01*
X149800000Y-88063500D01*
X149873079Y-88058273D01*
X149951165Y-88035345D01*
X150004670Y-88019635D01*
X150004672Y-88019634D01*
X150013316Y-88017096D01*
X150067984Y-87981963D01*
X150128691Y-87942949D01*
X150128694Y-87942947D01*
X150136271Y-87938077D01*
X150174422Y-87894049D01*
X150226082Y-87834431D01*
X150226084Y-87834428D01*
X150231984Y-87827619D01*
X150292700Y-87694670D01*
X150294773Y-87680252D01*
X150324266Y-87615670D01*
X150383992Y-87577286D01*
X150454988Y-87577286D01*
X150508586Y-87609087D01*
G37*
%TD.AperFunction*%
%TA.AperFunction,Conductor*%
G36*
X155684121Y-84528002D02*
G01*
X155730614Y-84581658D01*
X155742000Y-84634000D01*
X155742000Y-89511644D01*
X155721998Y-89579765D01*
X155668342Y-89626258D01*
X155607014Y-89637323D01*
X155604448Y-89637140D01*
X155600000Y-89636500D01*
X153659510Y-89636500D01*
X153591389Y-89616498D01*
X153544896Y-89562842D01*
X153533510Y-89510500D01*
X153533510Y-88127746D01*
X153533802Y-88119177D01*
X153537049Y-88071552D01*
X153537049Y-88071548D01*
X153537565Y-88063976D01*
X153526988Y-88003369D01*
X153526028Y-87996865D01*
X153519549Y-87943324D01*
X153518636Y-87935780D01*
X153515950Y-87928673D01*
X153514756Y-87923811D01*
X153511898Y-87913365D01*
X153510430Y-87908504D01*
X153509123Y-87901011D01*
X153501817Y-87884367D01*
X153484401Y-87844690D01*
X153481909Y-87838585D01*
X153474667Y-87819421D01*
X153460161Y-87781031D01*
X153455859Y-87774772D01*
X153453531Y-87770318D01*
X153448256Y-87760839D01*
X153445682Y-87756487D01*
X153442630Y-87749534D01*
X153438007Y-87743510D01*
X153438004Y-87743504D01*
X153405181Y-87700728D01*
X153401305Y-87695393D01*
X153370768Y-87650962D01*
X153370763Y-87650956D01*
X153366461Y-87644697D01*
X153321941Y-87605031D01*
X153316666Y-87600051D01*
X152824097Y-87107482D01*
X152790071Y-87045170D01*
X152791411Y-86988860D01*
X152791166Y-86988817D01*
X152791450Y-86987206D01*
X152791484Y-86985780D01*
X152792120Y-86983405D01*
X152793545Y-86978087D01*
X152813500Y-86750000D01*
X152793545Y-86521913D01*
X152786422Y-86495330D01*
X152735709Y-86306067D01*
X152735708Y-86306065D01*
X152734286Y-86300757D01*
X152701462Y-86230365D01*
X152639850Y-86098237D01*
X152639847Y-86098232D01*
X152637524Y-86093250D01*
X152506199Y-85905698D01*
X152344302Y-85743801D01*
X152339794Y-85740644D01*
X152339791Y-85740642D01*
X152161259Y-85615633D01*
X152161257Y-85615632D01*
X152156750Y-85612476D01*
X152151768Y-85610153D01*
X152151763Y-85610150D01*
X151954225Y-85518037D01*
X151954224Y-85518036D01*
X151949243Y-85515714D01*
X151943935Y-85514292D01*
X151943933Y-85514291D01*
X151733402Y-85457879D01*
X151733400Y-85457879D01*
X151728087Y-85456455D01*
X151500000Y-85436500D01*
X151271913Y-85456455D01*
X151266600Y-85457879D01*
X151266598Y-85457879D01*
X151056067Y-85514291D01*
X151056065Y-85514292D01*
X151050757Y-85515714D01*
X151045776Y-85518036D01*
X151045775Y-85518037D01*
X150848237Y-85610150D01*
X150848232Y-85610153D01*
X150843250Y-85612476D01*
X150838743Y-85615632D01*
X150838741Y-85615633D01*
X150660209Y-85740642D01*
X150660206Y-85740644D01*
X150655698Y-85743801D01*
X150507078Y-85892421D01*
X150444766Y-85926447D01*
X150373951Y-85921382D01*
X150317115Y-85878835D01*
X150297087Y-85838824D01*
X150269635Y-85745330D01*
X150269634Y-85745328D01*
X150267096Y-85736684D01*
X150221393Y-85665569D01*
X150192949Y-85621309D01*
X150192947Y-85621306D01*
X150188077Y-85613729D01*
X150181267Y-85607828D01*
X150084431Y-85523918D01*
X150084428Y-85523916D01*
X150077619Y-85518016D01*
X149944670Y-85457300D01*
X149935755Y-85456018D01*
X149935754Y-85456018D01*
X149804448Y-85437139D01*
X149804441Y-85437138D01*
X149800000Y-85436500D01*
X148200000Y-85436500D01*
X148126921Y-85441727D01*
X148076762Y-85456455D01*
X147995330Y-85480365D01*
X147995328Y-85480366D01*
X147986684Y-85482904D01*
X147979105Y-85487775D01*
X147871309Y-85557051D01*
X147871306Y-85557053D01*
X147863729Y-85561923D01*
X147857828Y-85568733D01*
X147773918Y-85665569D01*
X147773916Y-85665572D01*
X147768016Y-85672381D01*
X147707300Y-85805330D01*
X147706018Y-85814245D01*
X147706018Y-85814246D01*
X147687139Y-85945552D01*
X147687138Y-85945559D01*
X147686500Y-85950000D01*
X147686500Y-87044695D01*
X147666498Y-87112816D01*
X147649595Y-87133790D01*
X146995255Y-87788131D01*
X146528595Y-88254791D01*
X146466283Y-88288816D01*
X146395468Y-88283752D01*
X146338632Y-88241205D01*
X146313821Y-88174685D01*
X146313500Y-88165696D01*
X146313500Y-86700000D01*
X146308273Y-86626921D01*
X146277440Y-86521913D01*
X146269635Y-86495330D01*
X146269634Y-86495328D01*
X146267096Y-86486684D01*
X146221393Y-86415569D01*
X146192949Y-86371309D01*
X146192947Y-86371306D01*
X146188077Y-86363729D01*
X146181267Y-86357828D01*
X146084431Y-86273918D01*
X146084428Y-86273916D01*
X146077619Y-86268016D01*
X145944670Y-86207300D01*
X145935755Y-86206018D01*
X145935754Y-86206018D01*
X145804448Y-86187139D01*
X145804441Y-86187138D01*
X145800000Y-86186500D01*
X144200000Y-86186500D01*
X144126921Y-86191727D01*
X144073884Y-86207300D01*
X143995330Y-86230365D01*
X143995328Y-86230366D01*
X143986684Y-86232904D01*
X143979105Y-86237775D01*
X143871309Y-86307051D01*
X143871306Y-86307053D01*
X143863729Y-86311923D01*
X143857828Y-86318733D01*
X143773918Y-86415569D01*
X143773916Y-86415572D01*
X143768016Y-86422381D01*
X143707300Y-86555330D01*
X143706018Y-86564245D01*
X143706018Y-86564246D01*
X143691334Y-86666378D01*
X143661841Y-86730959D01*
X143621398Y-86756950D01*
X143622861Y-86759733D01*
X143573570Y-86785641D01*
X142872021Y-87487189D01*
X142864408Y-87501132D01*
X142864539Y-87502966D01*
X142868790Y-87509580D01*
X143574294Y-88215083D01*
X143617621Y-88238741D01*
X143624182Y-88240168D01*
X143674390Y-88290364D01*
X143689488Y-88341772D01*
X143691727Y-88373079D01*
X143732904Y-88513316D01*
X143737775Y-88520895D01*
X143807051Y-88628691D01*
X143807053Y-88628694D01*
X143811923Y-88636271D01*
X143818733Y-88642172D01*
X143915569Y-88726082D01*
X143915572Y-88726084D01*
X143922381Y-88731984D01*
X144055330Y-88792700D01*
X144064245Y-88793982D01*
X144064246Y-88793982D01*
X144170933Y-88809321D01*
X144235513Y-88838815D01*
X144273897Y-88898541D01*
X144279001Y-88934039D01*
X144279000Y-90876561D01*
X144258998Y-90944682D01*
X144244473Y-90963214D01*
X144157414Y-91055115D01*
X144072233Y-91201766D01*
X144041074Y-91304645D01*
X144024967Y-91357828D01*
X144023073Y-91364080D01*
X144022498Y-91370520D01*
X144022498Y-91370521D01*
X144017870Y-91422381D01*
X144016500Y-91437727D01*
X144016500Y-91990500D01*
X143996498Y-92058621D01*
X143942842Y-92105114D01*
X143890500Y-92116500D01*
X143189649Y-92116500D01*
X143121528Y-92096498D01*
X143094425Y-92073013D01*
X143092948Y-92071309D01*
X143088077Y-92063729D01*
X143003567Y-91990500D01*
X142984431Y-91973918D01*
X142984428Y-91973916D01*
X142977619Y-91968016D01*
X142844670Y-91907300D01*
X142835755Y-91906018D01*
X142835754Y-91906018D01*
X142704448Y-91887139D01*
X142704441Y-91887138D01*
X142700000Y-91886500D01*
X142320847Y-91886500D01*
X142252726Y-91866498D01*
X142206233Y-91812842D01*
X142196129Y-91742568D01*
X142200257Y-91723977D01*
X142226927Y-91635920D01*
X142233500Y-91562273D01*
X142233500Y-90950865D01*
X142218860Y-90825296D01*
X142160994Y-90665878D01*
X142068007Y-90524049D01*
X141944885Y-90407414D01*
X141798234Y-90322233D01*
X141635920Y-90273073D01*
X141629480Y-90272498D01*
X141629479Y-90272498D01*
X141565066Y-90266749D01*
X141565060Y-90266749D01*
X141562273Y-90266500D01*
X141025865Y-90266500D01*
X140953406Y-90274948D01*
X140907568Y-90280292D01*
X140907567Y-90280292D01*
X140900296Y-90281140D01*
X140893419Y-90283636D01*
X140893416Y-90283637D01*
X140776957Y-90325910D01*
X140740878Y-90339006D01*
X140599049Y-90431993D01*
X140594011Y-90437311D01*
X140594010Y-90437312D01*
X140589586Y-90441982D01*
X140528217Y-90477679D01*
X140457290Y-90474531D01*
X140411463Y-90446801D01*
X140369885Y-90407414D01*
X140223234Y-90322233D01*
X140060920Y-90273073D01*
X140054480Y-90272498D01*
X140054479Y-90272498D01*
X139990066Y-90266749D01*
X139990060Y-90266749D01*
X139987273Y-90266500D01*
X139450865Y-90266500D01*
X139378406Y-90274948D01*
X139332568Y-90280292D01*
X139332567Y-90280292D01*
X139325296Y-90281140D01*
X139318419Y-90283636D01*
X139318416Y-90283637D01*
X139201957Y-90325910D01*
X139165878Y-90339006D01*
X139103085Y-90380175D01*
X139035150Y-90400798D01*
X138966849Y-90381418D01*
X138919869Y-90328189D01*
X138908000Y-90274803D01*
X138908000Y-88586064D01*
X141778490Y-88586064D01*
X141787784Y-88598078D01*
X141838992Y-88633934D01*
X141848487Y-88639417D01*
X142045943Y-88731491D01*
X142056239Y-88735239D01*
X142266690Y-88791630D01*
X142277477Y-88793532D01*
X142494525Y-88812521D01*
X142505475Y-88812521D01*
X142722523Y-88793532D01*
X142733310Y-88791630D01*
X142943761Y-88735239D01*
X142954057Y-88731491D01*
X143151513Y-88639417D01*
X143161008Y-88633934D01*
X143213050Y-88597494D01*
X143221426Y-88587015D01*
X143214359Y-88573570D01*
X142512811Y-87872021D01*
X142498868Y-87864408D01*
X142497034Y-87864539D01*
X142490420Y-87868790D01*
X141784917Y-88574294D01*
X141778490Y-88586064D01*
X138908000Y-88586064D01*
X138908000Y-87494525D01*
X141187479Y-87494525D01*
X141187479Y-87505475D01*
X141206468Y-87722523D01*
X141208370Y-87733310D01*
X141264761Y-87943761D01*
X141268509Y-87954057D01*
X141360583Y-88151513D01*
X141366066Y-88161008D01*
X141402506Y-88213050D01*
X141412985Y-88221426D01*
X141426430Y-88214359D01*
X142127979Y-87512811D01*
X142135592Y-87498868D01*
X142135461Y-87497034D01*
X142131210Y-87490420D01*
X141425706Y-86784917D01*
X141413936Y-86778490D01*
X141401922Y-86787784D01*
X141366066Y-86838992D01*
X141360583Y-86848487D01*
X141268509Y-87045943D01*
X141264761Y-87056239D01*
X141208370Y-87266690D01*
X141206468Y-87277477D01*
X141187479Y-87494525D01*
X138908000Y-87494525D01*
X138908000Y-86412985D01*
X141778574Y-86412985D01*
X141785641Y-86426430D01*
X142487189Y-87127979D01*
X142501132Y-87135592D01*
X142502966Y-87135461D01*
X142509580Y-87131210D01*
X143215083Y-86425706D01*
X143221510Y-86413936D01*
X143212216Y-86401922D01*
X143161008Y-86366066D01*
X143151513Y-86360583D01*
X142954057Y-86268509D01*
X142943761Y-86264761D01*
X142733310Y-86208370D01*
X142722523Y-86206468D01*
X142505475Y-86187479D01*
X142494525Y-86187479D01*
X142277477Y-86206468D01*
X142266690Y-86208370D01*
X142056239Y-86264761D01*
X142045943Y-86268509D01*
X141848487Y-86360583D01*
X141838992Y-86366066D01*
X141786950Y-86402506D01*
X141778574Y-86412985D01*
X138908000Y-86412985D01*
X138908000Y-84634000D01*
X138928002Y-84565879D01*
X138981658Y-84519386D01*
X139034000Y-84508000D01*
X155616000Y-84508000D01*
X155684121Y-84528002D01*
G37*
%TD.AperFunction*%
%TD*%
M02*
