%TF.GenerationSoftware,KiCad,Pcbnew,(5.99.0-7340-g1a9878d6d3)*%
%TF.CreationDate,2020-12-04T16:26:35+02:00*%
%TF.ProjectId,borraja,626f7272-616a-4612-9e6b-696361645f70,rev?*%
%TF.SameCoordinates,Original*%
%TF.FileFunction,Copper,L2,Bot*%
%TF.FilePolarity,Positive*%
%FSLAX46Y46*%
G04 Gerber Fmt 4.6, Leading zero omitted, Abs format (unit mm)*
G04 Created by KiCad (PCBNEW (5.99.0-7340-g1a9878d6d3)) date 2020-12-04 16:26:35*
%MOMM*%
%LPD*%
G01*
G04 APERTURE LIST*
%TA.AperFunction,ComponentPad*%
%ADD10O,1.930400X1.930400*%
%TD*%
%TA.AperFunction,ComponentPad*%
%ADD11R,1.930400X1.930400*%
%TD*%
%TA.AperFunction,ComponentPad*%
%ADD12O,2.540000X2.540000*%
%TD*%
%TA.AperFunction,ComponentPad*%
%ADD13R,2.540000X2.540000*%
%TD*%
%TA.AperFunction,ComponentPad*%
%ADD14O,2.200000X2.200000*%
%TD*%
%TA.AperFunction,ComponentPad*%
%ADD15R,2.200000X2.200000*%
%TD*%
%TA.AperFunction,ComponentPad*%
%ADD16C,1.600000*%
%TD*%
%TA.AperFunction,ComponentPad*%
%ADD17R,1.600000X1.600000*%
%TD*%
%TA.AperFunction,ViaPad*%
%ADD18C,0.800000*%
%TD*%
%TA.AperFunction,Conductor*%
%ADD19C,0.350000*%
%TD*%
G04 APERTURE END LIST*
D10*
%TO.P,J1,4,Pin_4*%
%TO.N,OUT*%
X149810000Y-101500000D03*
%TO.P,J1,3,Pin_3*%
%TO.N,+9V*%
X147270000Y-101500000D03*
%TO.P,J1,2,Pin_2*%
%TO.N,GND*%
X144730000Y-101500000D03*
D11*
%TO.P,J1,1,Pin_1*%
%TO.N,IN*%
X142190000Y-101500000D03*
%TD*%
D12*
%TO.P,RV1,3,3*%
%TO.N,Net-(R3-Pad1)*%
X140948500Y-97183500D03*
%TO.P,RV1,2,2*%
%TO.N,Net-(C1-Pad1)*%
X146028500Y-97183500D03*
D13*
%TO.P,RV1,1,1*%
X151108500Y-97183500D03*
%TD*%
D14*
%TO.P,D1,2,A*%
%TO.N,+9V*%
X154500000Y-101410000D03*
D15*
%TO.P,D1,1,K*%
%TO.N,VCC*%
X154500000Y-91250000D03*
%TD*%
D16*
%TO.P,C3,2*%
%TO.N,GND*%
X142500000Y-87500000D03*
D17*
%TO.P,C3,1*%
%TO.N,VCC*%
X145000000Y-87500000D03*
%TD*%
D16*
%TO.P,C2,2*%
%TO.N,OUT*%
X151500000Y-86750000D03*
D17*
%TO.P,C2,1*%
%TO.N,Net-(R2-Pad2)*%
X149000000Y-86750000D03*
%TD*%
D16*
%TO.P,C1,2*%
%TO.N,GND*%
X151250000Y-92500000D03*
D17*
%TO.P,C1,1*%
%TO.N,Net-(C1-Pad1)*%
X148750000Y-92500000D03*
%TD*%
D18*
%TO.N,GND*%
X154500000Y-98500000D03*
%TD*%
D19*
%TO.N,VCC*%
X154500000Y-91250000D02*
X154500000Y-88010998D01*
X154500000Y-88010998D02*
X152064001Y-85574999D01*
X152064001Y-85574999D02*
X146925001Y-85574999D01*
X146925001Y-85574999D02*
X145000000Y-87500000D01*
%TO.N,+9V*%
X147270000Y-101500000D02*
X148610201Y-100159799D01*
X148610201Y-100159799D02*
X153249799Y-100159799D01*
X153249799Y-100159799D02*
X154500000Y-101410000D01*
%TD*%
%TA.AperFunction,Conductor*%
%TO.N,GND*%
G36*
X155684121Y-84528002D02*
G01*
X155730614Y-84581658D01*
X155742000Y-84634000D01*
X155742000Y-89511644D01*
X155721998Y-89579765D01*
X155668342Y-89626258D01*
X155607014Y-89637323D01*
X155604448Y-89637140D01*
X155600000Y-89636500D01*
X155309500Y-89636500D01*
X155241379Y-89616498D01*
X155194886Y-89562842D01*
X155183500Y-89510500D01*
X155183500Y-88038745D01*
X155183792Y-88030175D01*
X155183835Y-88029551D01*
X155187556Y-87974964D01*
X155183908Y-87954057D01*
X155176980Y-87914363D01*
X155176017Y-87907839D01*
X155169539Y-87854314D01*
X155168626Y-87846768D01*
X155165940Y-87839659D01*
X155164730Y-87834734D01*
X155161880Y-87824319D01*
X155160420Y-87819482D01*
X155159114Y-87811999D01*
X155156063Y-87805049D01*
X155156061Y-87805042D01*
X155134385Y-87755662D01*
X155131893Y-87749557D01*
X155112836Y-87699124D01*
X155112835Y-87699122D01*
X155110151Y-87692019D01*
X155105848Y-87685759D01*
X155103481Y-87681231D01*
X155098246Y-87671826D01*
X155095673Y-87667475D01*
X155092621Y-87660522D01*
X155087999Y-87654499D01*
X155087997Y-87654495D01*
X155055156Y-87611695D01*
X155051280Y-87606361D01*
X155016451Y-87555685D01*
X154971931Y-87516019D01*
X154966656Y-87511039D01*
X152566944Y-85111328D01*
X152561090Y-85105062D01*
X152529693Y-85069071D01*
X152524697Y-85063344D01*
X152474361Y-85027967D01*
X152469075Y-85024041D01*
X152461368Y-85017999D01*
X152420662Y-84986081D01*
X152413733Y-84982953D01*
X152409381Y-84980317D01*
X152400031Y-84974984D01*
X152395567Y-84972590D01*
X152389352Y-84968222D01*
X152382277Y-84965463D01*
X152382274Y-84965462D01*
X152332033Y-84945874D01*
X152325952Y-84943318D01*
X152276814Y-84921131D01*
X152276812Y-84921130D01*
X152269890Y-84918005D01*
X152262421Y-84916621D01*
X152257575Y-84915102D01*
X152247164Y-84912137D01*
X152242302Y-84910889D01*
X152235224Y-84908129D01*
X152204077Y-84904029D01*
X152174207Y-84900096D01*
X152167693Y-84899064D01*
X152114701Y-84889243D01*
X152114699Y-84889243D01*
X152107232Y-84887859D01*
X152099651Y-84888296D01*
X152099650Y-84888296D01*
X152047724Y-84891290D01*
X152040471Y-84891499D01*
X146952748Y-84891499D01*
X146944178Y-84891207D01*
X146896543Y-84887959D01*
X146896539Y-84887959D01*
X146888967Y-84887443D01*
X146828342Y-84898023D01*
X146821852Y-84898981D01*
X146797542Y-84901923D01*
X146768312Y-84905460D01*
X146768309Y-84905461D01*
X146760771Y-84906373D01*
X146753669Y-84909057D01*
X146748766Y-84910261D01*
X146738318Y-84913120D01*
X146733484Y-84914579D01*
X146726003Y-84915885D01*
X146719050Y-84918937D01*
X146669683Y-84940607D01*
X146663578Y-84943099D01*
X146613127Y-84962163D01*
X146613126Y-84962164D01*
X146606022Y-84964848D01*
X146599762Y-84969151D01*
X146595234Y-84971518D01*
X146585829Y-84976753D01*
X146581478Y-84979326D01*
X146574525Y-84982378D01*
X146568502Y-84987000D01*
X146568498Y-84987002D01*
X146525698Y-85019843D01*
X146520373Y-85023712D01*
X146469688Y-85058548D01*
X146464631Y-85064224D01*
X146430023Y-85103067D01*
X146425042Y-85108343D01*
X145383791Y-86149595D01*
X145321479Y-86183620D01*
X145294696Y-86186500D01*
X144200000Y-86186500D01*
X144126921Y-86191727D01*
X144070240Y-86208370D01*
X143995330Y-86230365D01*
X143995328Y-86230366D01*
X143986684Y-86232904D01*
X143979105Y-86237775D01*
X143871309Y-86307051D01*
X143871306Y-86307053D01*
X143863729Y-86311923D01*
X143857828Y-86318733D01*
X143773918Y-86415569D01*
X143773916Y-86415572D01*
X143768016Y-86422381D01*
X143707300Y-86555330D01*
X143706018Y-86564245D01*
X143706018Y-86564246D01*
X143691334Y-86666378D01*
X143661841Y-86730959D01*
X143621398Y-86756950D01*
X143622861Y-86759733D01*
X143573570Y-86785641D01*
X142872021Y-87487189D01*
X142864408Y-87501132D01*
X142864539Y-87502966D01*
X142868790Y-87509580D01*
X143574294Y-88215083D01*
X143617621Y-88238741D01*
X143624182Y-88240168D01*
X143674390Y-88290364D01*
X143689488Y-88341772D01*
X143691727Y-88373079D01*
X143732904Y-88513316D01*
X143737775Y-88520895D01*
X143807051Y-88628691D01*
X143807053Y-88628694D01*
X143811923Y-88636271D01*
X143818733Y-88642172D01*
X143915569Y-88726082D01*
X143915572Y-88726084D01*
X143922381Y-88731984D01*
X144055330Y-88792700D01*
X144064245Y-88793982D01*
X144064246Y-88793982D01*
X144195552Y-88812861D01*
X144195559Y-88812862D01*
X144200000Y-88813500D01*
X145800000Y-88813500D01*
X145873079Y-88808273D01*
X145951165Y-88785345D01*
X146004670Y-88769635D01*
X146004672Y-88769634D01*
X146013316Y-88767096D01*
X146077135Y-88726082D01*
X146128691Y-88692949D01*
X146128694Y-88692947D01*
X146136271Y-88688077D01*
X146176048Y-88642172D01*
X146226082Y-88584431D01*
X146226084Y-88584428D01*
X146231984Y-88577619D01*
X146292700Y-88444670D01*
X146307494Y-88341773D01*
X146312861Y-88304448D01*
X146312862Y-88304441D01*
X146313500Y-88300000D01*
X146313500Y-87205305D01*
X146333502Y-87137184D01*
X146350405Y-87116209D01*
X147171212Y-86295403D01*
X147233524Y-86261378D01*
X147260307Y-86258499D01*
X147560500Y-86258499D01*
X147628621Y-86278501D01*
X147675114Y-86332157D01*
X147686500Y-86384499D01*
X147686500Y-87550000D01*
X147691727Y-87623079D01*
X147712748Y-87694670D01*
X147724094Y-87733310D01*
X147732904Y-87763316D01*
X147737775Y-87770895D01*
X147807051Y-87878691D01*
X147807053Y-87878694D01*
X147811923Y-87886271D01*
X147818733Y-87892172D01*
X147915569Y-87976082D01*
X147915572Y-87976084D01*
X147922381Y-87981984D01*
X147930579Y-87985728D01*
X148037283Y-88034458D01*
X148055330Y-88042700D01*
X148064245Y-88043982D01*
X148064246Y-88043982D01*
X148195552Y-88062861D01*
X148195559Y-88062862D01*
X148200000Y-88063500D01*
X149800000Y-88063500D01*
X149873079Y-88058273D01*
X149968773Y-88030175D01*
X150004670Y-88019635D01*
X150004672Y-88019634D01*
X150013316Y-88017096D01*
X150078874Y-87974964D01*
X150128691Y-87942949D01*
X150128694Y-87942947D01*
X150136271Y-87938077D01*
X150142172Y-87931267D01*
X150226082Y-87834431D01*
X150226084Y-87834428D01*
X150231984Y-87827619D01*
X150235728Y-87819421D01*
X150288958Y-87702864D01*
X150288958Y-87702863D01*
X150292700Y-87694670D01*
X150294773Y-87680252D01*
X150324266Y-87615670D01*
X150383992Y-87577286D01*
X150454988Y-87577286D01*
X150508586Y-87609087D01*
X150655698Y-87756199D01*
X150660206Y-87759356D01*
X150660209Y-87759358D01*
X150810424Y-87864539D01*
X150843250Y-87887524D01*
X150848232Y-87889847D01*
X150848237Y-87889850D01*
X151014725Y-87967484D01*
X151050757Y-87984286D01*
X151056065Y-87985708D01*
X151056067Y-87985709D01*
X151266598Y-88042121D01*
X151266600Y-88042121D01*
X151271913Y-88043545D01*
X151500000Y-88063500D01*
X151728087Y-88043545D01*
X151733400Y-88042121D01*
X151733402Y-88042121D01*
X151943933Y-87985709D01*
X151943935Y-87985708D01*
X151949243Y-87984286D01*
X151985275Y-87967484D01*
X152151763Y-87889850D01*
X152151768Y-87889847D01*
X152156750Y-87887524D01*
X152189576Y-87864539D01*
X152339791Y-87759358D01*
X152339794Y-87759356D01*
X152344302Y-87756199D01*
X152506199Y-87594302D01*
X152528855Y-87561947D01*
X152634367Y-87411259D01*
X152634368Y-87411257D01*
X152637524Y-87406750D01*
X152639847Y-87401769D01*
X152639853Y-87401758D01*
X152654214Y-87370960D01*
X152701131Y-87317675D01*
X152769408Y-87298215D01*
X152837368Y-87318757D01*
X152857503Y-87335116D01*
X153779596Y-88257209D01*
X153813622Y-88319521D01*
X153816501Y-88346304D01*
X153816500Y-89510500D01*
X153796498Y-89578621D01*
X153742842Y-89625114D01*
X153690500Y-89636500D01*
X153400000Y-89636500D01*
X153326921Y-89641727D01*
X153275192Y-89656916D01*
X153195330Y-89680365D01*
X153195328Y-89680366D01*
X153186684Y-89682904D01*
X153179105Y-89687775D01*
X153071309Y-89757051D01*
X153071306Y-89757053D01*
X153063729Y-89761923D01*
X153057828Y-89768733D01*
X152973918Y-89865569D01*
X152973916Y-89865572D01*
X152968016Y-89872381D01*
X152907300Y-90005330D01*
X152906018Y-90014245D01*
X152906018Y-90014246D01*
X152887139Y-90145552D01*
X152887138Y-90145559D01*
X152886500Y-90150000D01*
X152886500Y-92350000D01*
X152891727Y-92423079D01*
X152914645Y-92501132D01*
X152918075Y-92512811D01*
X152932904Y-92563316D01*
X152937775Y-92570895D01*
X153007051Y-92678691D01*
X153007053Y-92678694D01*
X153011923Y-92686271D01*
X153018733Y-92692172D01*
X153115569Y-92776082D01*
X153115572Y-92776084D01*
X153122381Y-92781984D01*
X153255330Y-92842700D01*
X153264245Y-92843982D01*
X153264246Y-92843982D01*
X153395552Y-92862861D01*
X153395559Y-92862862D01*
X153400000Y-92863500D01*
X155600000Y-92863500D01*
X155606762Y-92863016D01*
X155607019Y-92862998D01*
X155676392Y-92878094D01*
X155726591Y-92928299D01*
X155742000Y-92988678D01*
X155742000Y-100082101D01*
X155721998Y-100150222D01*
X155668342Y-100196715D01*
X155598068Y-100206819D01*
X155534170Y-100177912D01*
X155484200Y-100135234D01*
X155448392Y-100104651D01*
X155232514Y-99972361D01*
X155227944Y-99970468D01*
X155227940Y-99970466D01*
X155003172Y-99877364D01*
X155003170Y-99877363D01*
X154998599Y-99875470D01*
X154913894Y-99855134D01*
X154757220Y-99817520D01*
X154757214Y-99817519D01*
X154752407Y-99816365D01*
X154500000Y-99796500D01*
X154247593Y-99816365D01*
X154242786Y-99817519D01*
X154242780Y-99817520D01*
X154014118Y-99872417D01*
X153943210Y-99868870D01*
X153895609Y-99838994D01*
X153752735Y-99696121D01*
X153746881Y-99689854D01*
X153745156Y-99687876D01*
X153710495Y-99648144D01*
X153660159Y-99612767D01*
X153654873Y-99608841D01*
X153647166Y-99602799D01*
X153606460Y-99570881D01*
X153599531Y-99567753D01*
X153595179Y-99565117D01*
X153585829Y-99559784D01*
X153581365Y-99557390D01*
X153575150Y-99553022D01*
X153568075Y-99550263D01*
X153568072Y-99550262D01*
X153517831Y-99530674D01*
X153511750Y-99528118D01*
X153462612Y-99505931D01*
X153462610Y-99505930D01*
X153455688Y-99502805D01*
X153448219Y-99501421D01*
X153443373Y-99499902D01*
X153432962Y-99496937D01*
X153428100Y-99495689D01*
X153421022Y-99492929D01*
X153389875Y-99488829D01*
X153360005Y-99484896D01*
X153353491Y-99483864D01*
X153300499Y-99474043D01*
X153300497Y-99474043D01*
X153293030Y-99472659D01*
X153285449Y-99473096D01*
X153285448Y-99473096D01*
X153233522Y-99476090D01*
X153226269Y-99476299D01*
X148637937Y-99476299D01*
X148629368Y-99476007D01*
X148581743Y-99472760D01*
X148581739Y-99472760D01*
X148574167Y-99472244D01*
X148513560Y-99482821D01*
X148507069Y-99483779D01*
X148445971Y-99491173D01*
X148438864Y-99493859D01*
X148434002Y-99495053D01*
X148423556Y-99497911D01*
X148418695Y-99499379D01*
X148411202Y-99500686D01*
X148404241Y-99503742D01*
X148404240Y-99503742D01*
X148354881Y-99525408D01*
X148348776Y-99527900D01*
X148344611Y-99529474D01*
X148291222Y-99549648D01*
X148284963Y-99553950D01*
X148280509Y-99556278D01*
X148271020Y-99561559D01*
X148266679Y-99564127D01*
X148259725Y-99567179D01*
X148253701Y-99571801D01*
X148253700Y-99571802D01*
X148210920Y-99604629D01*
X148205582Y-99608507D01*
X148199377Y-99612772D01*
X148154888Y-99643348D01*
X148149836Y-99649018D01*
X148149835Y-99649019D01*
X148115215Y-99687876D01*
X148110234Y-99693152D01*
X147766087Y-100037299D01*
X147703775Y-100071325D01*
X147647775Y-100070092D01*
X147647728Y-100070358D01*
X147646018Y-100070053D01*
X147646015Y-100070053D01*
X147409158Y-100027863D01*
X147318181Y-100026751D01*
X147172021Y-100024965D01*
X147172019Y-100024965D01*
X147166851Y-100024902D01*
X146927314Y-100061556D01*
X146696981Y-100136841D01*
X146692393Y-100139229D01*
X146692389Y-100139231D01*
X146578479Y-100198529D01*
X146482036Y-100248734D01*
X146477903Y-100251837D01*
X146477900Y-100251839D01*
X146309474Y-100378297D01*
X146288252Y-100394231D01*
X146120834Y-100569424D01*
X146104940Y-100592723D01*
X146050032Y-100637725D01*
X145979507Y-100645898D01*
X145915759Y-100614644D01*
X145901027Y-100598600D01*
X145897686Y-100594262D01*
X145741608Y-100422735D01*
X145734075Y-100415710D01*
X145552081Y-100271981D01*
X145543494Y-100266276D01*
X145340482Y-100154207D01*
X145331070Y-100149977D01*
X145112469Y-100072566D01*
X145102512Y-100069936D01*
X145001836Y-100052002D01*
X144988541Y-100053461D01*
X144984000Y-100068019D01*
X144984000Y-101628000D01*
X144963998Y-101696121D01*
X144910342Y-101742614D01*
X144858000Y-101754000D01*
X144602000Y-101754000D01*
X144533879Y-101733998D01*
X144487386Y-101680342D01*
X144476000Y-101628000D01*
X144476000Y-100066605D01*
X144472082Y-100053261D01*
X144457806Y-100051274D01*
X144392542Y-100061261D01*
X144382515Y-100063650D01*
X144162092Y-100135695D01*
X144152582Y-100139692D01*
X143946891Y-100246768D01*
X143938166Y-100252262D01*
X143803476Y-100353391D01*
X143736991Y-100378297D01*
X143667596Y-100363305D01*
X143621826Y-100320753D01*
X143543277Y-100198529D01*
X143492127Y-100154207D01*
X143439631Y-100108718D01*
X143439628Y-100108716D01*
X143432819Y-100102816D01*
X143424621Y-100099072D01*
X143308064Y-100045842D01*
X143308063Y-100045842D01*
X143299870Y-100042100D01*
X143290955Y-100040818D01*
X143290954Y-100040818D01*
X143159648Y-100021939D01*
X143159641Y-100021938D01*
X143155200Y-100021300D01*
X141224800Y-100021300D01*
X141151721Y-100026527D01*
X141098684Y-100042100D01*
X141020130Y-100065165D01*
X141020128Y-100065166D01*
X141011484Y-100067704D01*
X141003905Y-100072575D01*
X140896109Y-100141851D01*
X140896106Y-100141853D01*
X140888529Y-100146723D01*
X140882628Y-100153533D01*
X140798718Y-100250369D01*
X140798716Y-100250372D01*
X140792816Y-100257181D01*
X140789072Y-100265379D01*
X140787381Y-100269083D01*
X140732100Y-100390130D01*
X140730818Y-100399045D01*
X140730818Y-100399046D01*
X140711939Y-100530352D01*
X140711938Y-100530359D01*
X140711300Y-100534800D01*
X140711300Y-102366000D01*
X140691298Y-102434121D01*
X140637642Y-102480614D01*
X140585300Y-102492000D01*
X139034000Y-102492000D01*
X138965879Y-102471998D01*
X138919386Y-102418342D01*
X138908000Y-102366000D01*
X138908000Y-97136813D01*
X139165611Y-97136813D01*
X139165835Y-97141479D01*
X139165835Y-97141484D01*
X139168005Y-97186660D01*
X139178294Y-97400854D01*
X139229865Y-97660120D01*
X139319192Y-97908915D01*
X139321408Y-97913039D01*
X139388790Y-98038443D01*
X139444311Y-98141774D01*
X139447106Y-98145517D01*
X139447108Y-98145520D01*
X139599683Y-98349843D01*
X139599688Y-98349849D01*
X139602475Y-98353581D01*
X139605784Y-98356861D01*
X139605789Y-98356867D01*
X139708416Y-98458602D01*
X139790209Y-98539684D01*
X139793971Y-98542442D01*
X139793974Y-98542445D01*
X139999615Y-98693227D01*
X140003389Y-98695994D01*
X140007532Y-98698174D01*
X140007534Y-98698175D01*
X140233181Y-98816894D01*
X140233186Y-98816896D01*
X140237331Y-98819077D01*
X140241754Y-98820622D01*
X140241755Y-98820622D01*
X140438213Y-98889228D01*
X140486896Y-98906229D01*
X140491489Y-98907101D01*
X140742013Y-98954664D01*
X140742016Y-98954664D01*
X140746602Y-98955535D01*
X140878673Y-98960725D01*
X141006075Y-98965731D01*
X141006081Y-98965731D01*
X141010743Y-98965914D01*
X141119158Y-98954040D01*
X141268864Y-98937645D01*
X141268869Y-98937644D01*
X141273517Y-98937135D01*
X141336337Y-98920596D01*
X141524631Y-98871022D01*
X141529151Y-98869832D01*
X141701764Y-98795672D01*
X141767726Y-98767333D01*
X141767729Y-98767331D01*
X141772029Y-98765484D01*
X141776009Y-98763021D01*
X141776013Y-98763019D01*
X141992842Y-98628841D01*
X141992846Y-98628838D01*
X141996815Y-98626382D01*
X142198572Y-98455582D01*
X142372866Y-98256837D01*
X142515870Y-98034513D01*
X142624442Y-97793493D01*
X142696196Y-97539073D01*
X142729556Y-97276841D01*
X142732000Y-97183500D01*
X142728531Y-97136813D01*
X144245611Y-97136813D01*
X144245835Y-97141479D01*
X144245835Y-97141484D01*
X144248005Y-97186660D01*
X144258294Y-97400854D01*
X144309865Y-97660120D01*
X144399192Y-97908915D01*
X144401408Y-97913039D01*
X144468790Y-98038443D01*
X144524311Y-98141774D01*
X144527106Y-98145517D01*
X144527108Y-98145520D01*
X144679683Y-98349843D01*
X144679688Y-98349849D01*
X144682475Y-98353581D01*
X144685784Y-98356861D01*
X144685789Y-98356867D01*
X144788416Y-98458602D01*
X144870209Y-98539684D01*
X144873971Y-98542442D01*
X144873974Y-98542445D01*
X145079615Y-98693227D01*
X145083389Y-98695994D01*
X145087532Y-98698174D01*
X145087534Y-98698175D01*
X145313181Y-98816894D01*
X145313186Y-98816896D01*
X145317331Y-98819077D01*
X145321754Y-98820622D01*
X145321755Y-98820622D01*
X145518213Y-98889228D01*
X145566896Y-98906229D01*
X145571489Y-98907101D01*
X145822013Y-98954664D01*
X145822016Y-98954664D01*
X145826602Y-98955535D01*
X145958673Y-98960725D01*
X146086075Y-98965731D01*
X146086081Y-98965731D01*
X146090743Y-98965914D01*
X146199158Y-98954040D01*
X146348864Y-98937645D01*
X146348869Y-98937644D01*
X146353517Y-98937135D01*
X146416337Y-98920596D01*
X146604631Y-98871022D01*
X146609151Y-98869832D01*
X146781764Y-98795672D01*
X146847726Y-98767333D01*
X146847729Y-98767331D01*
X146852029Y-98765484D01*
X146856009Y-98763021D01*
X146856013Y-98763019D01*
X147072842Y-98628841D01*
X147072846Y-98628838D01*
X147076815Y-98626382D01*
X147278572Y-98455582D01*
X147452866Y-98256837D01*
X147595870Y-98034513D01*
X147704442Y-97793493D01*
X147776196Y-97539073D01*
X147809556Y-97276841D01*
X147812000Y-97183500D01*
X147792410Y-96919882D01*
X147734070Y-96662055D01*
X147638261Y-96415683D01*
X147507089Y-96186179D01*
X147343434Y-95978585D01*
X147274247Y-95913500D01*
X149325000Y-95913500D01*
X149325000Y-98453500D01*
X149330227Y-98526579D01*
X149332131Y-98533062D01*
X149360254Y-98628841D01*
X149371404Y-98666816D01*
X149390156Y-98695994D01*
X149445551Y-98782191D01*
X149445553Y-98782194D01*
X149450423Y-98789771D01*
X149457233Y-98795672D01*
X149554069Y-98879582D01*
X149554072Y-98879584D01*
X149560881Y-98885484D01*
X149569079Y-98889228D01*
X149671373Y-98935944D01*
X149693830Y-98946200D01*
X149702745Y-98947482D01*
X149702746Y-98947482D01*
X149834052Y-98966361D01*
X149834059Y-98966362D01*
X149838500Y-98967000D01*
X152378500Y-98967000D01*
X152451579Y-98961773D01*
X152539545Y-98935944D01*
X152583170Y-98923135D01*
X152583172Y-98923134D01*
X152591816Y-98920596D01*
X152655635Y-98879582D01*
X152707191Y-98846449D01*
X152707194Y-98846447D01*
X152714771Y-98841577D01*
X152732929Y-98820622D01*
X152804582Y-98737931D01*
X152804584Y-98737928D01*
X152810484Y-98731119D01*
X152871200Y-98598170D01*
X152882462Y-98519840D01*
X152891361Y-98457948D01*
X152891362Y-98457941D01*
X152892000Y-98453500D01*
X152892000Y-95913500D01*
X152886773Y-95840421D01*
X152845596Y-95700184D01*
X152798036Y-95626179D01*
X152771449Y-95584809D01*
X152771447Y-95584806D01*
X152766577Y-95577229D01*
X152759767Y-95571328D01*
X152662931Y-95487418D01*
X152662928Y-95487416D01*
X152656119Y-95481516D01*
X152573675Y-95443865D01*
X152531364Y-95424542D01*
X152531363Y-95424542D01*
X152523170Y-95420800D01*
X152514255Y-95419518D01*
X152514254Y-95419518D01*
X152382948Y-95400639D01*
X152382941Y-95400638D01*
X152378500Y-95400000D01*
X149838500Y-95400000D01*
X149765421Y-95405227D01*
X149712384Y-95420800D01*
X149633830Y-95443865D01*
X149633828Y-95443866D01*
X149625184Y-95446404D01*
X149617605Y-95451275D01*
X149509809Y-95520551D01*
X149509806Y-95520553D01*
X149502229Y-95525423D01*
X149496328Y-95532233D01*
X149412418Y-95629069D01*
X149412416Y-95629072D01*
X149406516Y-95635881D01*
X149345800Y-95768830D01*
X149344518Y-95777745D01*
X149344518Y-95777746D01*
X149325639Y-95909052D01*
X149325638Y-95909059D01*
X149325000Y-95913500D01*
X147274247Y-95913500D01*
X147150893Y-95797460D01*
X146933695Y-95646784D01*
X146929505Y-95644718D01*
X146929502Y-95644716D01*
X146700799Y-95531933D01*
X146700796Y-95531932D01*
X146696611Y-95529868D01*
X146639649Y-95511634D01*
X146533864Y-95477772D01*
X146444850Y-95449278D01*
X146269986Y-95420800D01*
X146188554Y-95407538D01*
X146188553Y-95407538D01*
X146183942Y-95406787D01*
X146051781Y-95405057D01*
X145924297Y-95403388D01*
X145924294Y-95403388D01*
X145919620Y-95403327D01*
X145657689Y-95438974D01*
X145653203Y-95440282D01*
X145653201Y-95440282D01*
X145622337Y-95449278D01*
X145403905Y-95512945D01*
X145163842Y-95623616D01*
X145159937Y-95626176D01*
X145159932Y-95626179D01*
X144946687Y-95765988D01*
X144946682Y-95765992D01*
X144942774Y-95768554D01*
X144745557Y-95944577D01*
X144576525Y-96147816D01*
X144439390Y-96373808D01*
X144337165Y-96617587D01*
X144272095Y-96873798D01*
X144271627Y-96878449D01*
X144271626Y-96878453D01*
X144266986Y-96924534D01*
X144245611Y-97136813D01*
X142728531Y-97136813D01*
X142712410Y-96919882D01*
X142654070Y-96662055D01*
X142558261Y-96415683D01*
X142427089Y-96186179D01*
X142263434Y-95978585D01*
X142070893Y-95797460D01*
X141853695Y-95646784D01*
X141849505Y-95644718D01*
X141849502Y-95644716D01*
X141620799Y-95531933D01*
X141620796Y-95531932D01*
X141616611Y-95529868D01*
X141559649Y-95511634D01*
X141453864Y-95477772D01*
X141364850Y-95449278D01*
X141189986Y-95420800D01*
X141108554Y-95407538D01*
X141108553Y-95407538D01*
X141103942Y-95406787D01*
X140971781Y-95405057D01*
X140844297Y-95403388D01*
X140844294Y-95403388D01*
X140839620Y-95403327D01*
X140577689Y-95438974D01*
X140573203Y-95440282D01*
X140573201Y-95440282D01*
X140542337Y-95449278D01*
X140323905Y-95512945D01*
X140083842Y-95623616D01*
X140079937Y-95626176D01*
X140079932Y-95626179D01*
X139866687Y-95765988D01*
X139866682Y-95765992D01*
X139862774Y-95768554D01*
X139665557Y-95944577D01*
X139496525Y-96147816D01*
X139359390Y-96373808D01*
X139257165Y-96617587D01*
X139192095Y-96873798D01*
X139191627Y-96878449D01*
X139191626Y-96878453D01*
X139186986Y-96924534D01*
X139165611Y-97136813D01*
X138908000Y-97136813D01*
X138908000Y-91700000D01*
X147436500Y-91700000D01*
X147436500Y-93300000D01*
X147441727Y-93373079D01*
X147482904Y-93513316D01*
X147487775Y-93520895D01*
X147557051Y-93628691D01*
X147557053Y-93628694D01*
X147561923Y-93636271D01*
X147568733Y-93642172D01*
X147665569Y-93726082D01*
X147665572Y-93726084D01*
X147672381Y-93731984D01*
X147805330Y-93792700D01*
X147814245Y-93793982D01*
X147814246Y-93793982D01*
X147945552Y-93812861D01*
X147945559Y-93812862D01*
X147950000Y-93813500D01*
X149550000Y-93813500D01*
X149623079Y-93808273D01*
X149701165Y-93785345D01*
X149754670Y-93769635D01*
X149754672Y-93769634D01*
X149763316Y-93767096D01*
X149827135Y-93726082D01*
X149878691Y-93692949D01*
X149878694Y-93692947D01*
X149886271Y-93688077D01*
X149926048Y-93642172D01*
X149974666Y-93586064D01*
X150528490Y-93586064D01*
X150537784Y-93598078D01*
X150588992Y-93633934D01*
X150598487Y-93639417D01*
X150795943Y-93731491D01*
X150806239Y-93735239D01*
X151016690Y-93791630D01*
X151027477Y-93793532D01*
X151244525Y-93812521D01*
X151255475Y-93812521D01*
X151472523Y-93793532D01*
X151483310Y-93791630D01*
X151693761Y-93735239D01*
X151704057Y-93731491D01*
X151901513Y-93639417D01*
X151911008Y-93633934D01*
X151963050Y-93597494D01*
X151971426Y-93587015D01*
X151964359Y-93573570D01*
X151262811Y-92872021D01*
X151248868Y-92864408D01*
X151247034Y-92864539D01*
X151240420Y-92868790D01*
X150534917Y-93574294D01*
X150528490Y-93586064D01*
X149974666Y-93586064D01*
X149976082Y-93584431D01*
X149976084Y-93584428D01*
X149981984Y-93577619D01*
X150042700Y-93444670D01*
X150058666Y-93333622D01*
X150088159Y-93269041D01*
X150128602Y-93243050D01*
X150127139Y-93240267D01*
X150176430Y-93214359D01*
X150877979Y-92512811D01*
X150884355Y-92501132D01*
X151614408Y-92501132D01*
X151614539Y-92502966D01*
X151618790Y-92509580D01*
X152324294Y-93215083D01*
X152336064Y-93221510D01*
X152348078Y-93212216D01*
X152383934Y-93161008D01*
X152389417Y-93151513D01*
X152481491Y-92954057D01*
X152485239Y-92943761D01*
X152541630Y-92733310D01*
X152543532Y-92722523D01*
X152562521Y-92505475D01*
X152562521Y-92494525D01*
X152543532Y-92277477D01*
X152541630Y-92266690D01*
X152485239Y-92056239D01*
X152481491Y-92045943D01*
X152389417Y-91848487D01*
X152383934Y-91838992D01*
X152347494Y-91786950D01*
X152337015Y-91778574D01*
X152323570Y-91785641D01*
X151622021Y-92487189D01*
X151614408Y-92501132D01*
X150884355Y-92501132D01*
X150885592Y-92498868D01*
X150885461Y-92497034D01*
X150881210Y-92490420D01*
X150175706Y-91784917D01*
X150132379Y-91761259D01*
X150125818Y-91759832D01*
X150075610Y-91709636D01*
X150060512Y-91658227D01*
X150058755Y-91633659D01*
X150058755Y-91633658D01*
X150058273Y-91626921D01*
X150017096Y-91486684D01*
X149971393Y-91415569D01*
X149969733Y-91412985D01*
X150528574Y-91412985D01*
X150535641Y-91426430D01*
X151237189Y-92127979D01*
X151251132Y-92135592D01*
X151252966Y-92135461D01*
X151259580Y-92131210D01*
X151965083Y-91425706D01*
X151971510Y-91413936D01*
X151962216Y-91401922D01*
X151911008Y-91366066D01*
X151901513Y-91360583D01*
X151704057Y-91268509D01*
X151693761Y-91264761D01*
X151483310Y-91208370D01*
X151472523Y-91206468D01*
X151255475Y-91187479D01*
X151244525Y-91187479D01*
X151027477Y-91206468D01*
X151016690Y-91208370D01*
X150806239Y-91264761D01*
X150795943Y-91268509D01*
X150598487Y-91360583D01*
X150588992Y-91366066D01*
X150536950Y-91402506D01*
X150528574Y-91412985D01*
X149969733Y-91412985D01*
X149942949Y-91371309D01*
X149942947Y-91371306D01*
X149938077Y-91363729D01*
X149931267Y-91357828D01*
X149834431Y-91273918D01*
X149834428Y-91273916D01*
X149827619Y-91268016D01*
X149694670Y-91207300D01*
X149685755Y-91206018D01*
X149685754Y-91206018D01*
X149554448Y-91187139D01*
X149554441Y-91187138D01*
X149550000Y-91186500D01*
X147950000Y-91186500D01*
X147876921Y-91191727D01*
X147823884Y-91207300D01*
X147745330Y-91230365D01*
X147745328Y-91230366D01*
X147736684Y-91232904D01*
X147729105Y-91237775D01*
X147621309Y-91307051D01*
X147621306Y-91307053D01*
X147613729Y-91311923D01*
X147607828Y-91318733D01*
X147523918Y-91415569D01*
X147523916Y-91415572D01*
X147518016Y-91422381D01*
X147457300Y-91555330D01*
X147456018Y-91564245D01*
X147456018Y-91564246D01*
X147437139Y-91695552D01*
X147437138Y-91695559D01*
X147436500Y-91700000D01*
X138908000Y-91700000D01*
X138908000Y-88586064D01*
X141778490Y-88586064D01*
X141787784Y-88598078D01*
X141838992Y-88633934D01*
X141848487Y-88639417D01*
X142045943Y-88731491D01*
X142056239Y-88735239D01*
X142266690Y-88791630D01*
X142277477Y-88793532D01*
X142494525Y-88812521D01*
X142505475Y-88812521D01*
X142722523Y-88793532D01*
X142733310Y-88791630D01*
X142943761Y-88735239D01*
X142954057Y-88731491D01*
X143151513Y-88639417D01*
X143161008Y-88633934D01*
X143213050Y-88597494D01*
X143221426Y-88587015D01*
X143214359Y-88573570D01*
X142512811Y-87872021D01*
X142498868Y-87864408D01*
X142497034Y-87864539D01*
X142490420Y-87868790D01*
X141784917Y-88574294D01*
X141778490Y-88586064D01*
X138908000Y-88586064D01*
X138908000Y-87494525D01*
X141187479Y-87494525D01*
X141187479Y-87505475D01*
X141206468Y-87722523D01*
X141208370Y-87733310D01*
X141264761Y-87943761D01*
X141268509Y-87954057D01*
X141360583Y-88151513D01*
X141366066Y-88161008D01*
X141402506Y-88213050D01*
X141412985Y-88221426D01*
X141426430Y-88214359D01*
X142127979Y-87512811D01*
X142135592Y-87498868D01*
X142135461Y-87497034D01*
X142131210Y-87490420D01*
X141425706Y-86784917D01*
X141413936Y-86778490D01*
X141401922Y-86787784D01*
X141366066Y-86838992D01*
X141360583Y-86848487D01*
X141268509Y-87045943D01*
X141264761Y-87056239D01*
X141208370Y-87266690D01*
X141206468Y-87277477D01*
X141187479Y-87494525D01*
X138908000Y-87494525D01*
X138908000Y-86412985D01*
X141778574Y-86412985D01*
X141785641Y-86426430D01*
X142487189Y-87127979D01*
X142501132Y-87135592D01*
X142502966Y-87135461D01*
X142509580Y-87131210D01*
X143215083Y-86425706D01*
X143221510Y-86413936D01*
X143212216Y-86401922D01*
X143161008Y-86366066D01*
X143151513Y-86360583D01*
X142954057Y-86268509D01*
X142943761Y-86264761D01*
X142733310Y-86208370D01*
X142722523Y-86206468D01*
X142505475Y-86187479D01*
X142494525Y-86187479D01*
X142277477Y-86206468D01*
X142266690Y-86208370D01*
X142056239Y-86264761D01*
X142045943Y-86268509D01*
X141848487Y-86360583D01*
X141838992Y-86366066D01*
X141786950Y-86402506D01*
X141778574Y-86412985D01*
X138908000Y-86412985D01*
X138908000Y-84634000D01*
X138928002Y-84565879D01*
X138981658Y-84519386D01*
X139034000Y-84508000D01*
X155616000Y-84508000D01*
X155684121Y-84528002D01*
G37*
%TD.AperFunction*%
%TD*%
M02*
